<?xml version="1.0" encoding="utf-8" standalone="no"?>
<!DOCTYPE svg PUBLIC "-//W3C//DTD SVG 1.1//EN"
  "http://www.w3.org/Graphics/SVG/1.1/DTD/svg11.dtd">
<svg xmlns:xlink="http://www.w3.org/1999/xlink" width="144pt" height="360pt" viewBox="0 0 144 360" xmlns="http://www.w3.org/2000/svg" version="1.1">
 <metadata>
  <rdf:RDF xmlns:dc="http://purl.org/dc/elements/1.1/" xmlns:cc="http://creativecommons.org/ns#" xmlns:rdf="http://www.w3.org/1999/02/22-rdf-syntax-ns#">
   <cc:Work>
    <dc:type rdf:resource="http://purl.org/dc/dcmitype/StillImage"/>
    <dc:date>2026-05-27T05:49:08.240080</dc:date>
    <dc:format>image/svg+xml</dc:format>
    <dc:creator>
     <cc:Agent>
      <dc:title>Matplotlib v3.10.8, https://matplotlib.org/</dc:title>
     </cc:Agent>
    </dc:creator>
   </cc:Work>
  </rdf:RDF>
 </metadata>
 <defs>
  <style type="text/css">*{stroke-linejoin: round; stroke-linecap: butt}</style>
 </defs>
 <g id="figure_1">
  <g id="patch_1">
   <path d="M 0 360 
L 144 360 
L 144 0 
L 0 0 
z
" style="fill: #ffffff"/>
  </g>
  <g id="axes_1">
   <g id="patch_2">
    <path d="M 14.4 324 
L 19.887764 324 
L 19.887764 50.4 
L 14.4 50.4 
z
" style="fill: #ffffff"/>
   </g>
   <g id="patch_3">
    <path d="M 14.674388 62.836364 
L 19.613376 62.836364 
L 19.613376 74.015117 
L 14.674388 74.015117 
z
" clip-path="url(#p033ddc5963)" style="fill: #7a3b9c; stroke: #ffffff; stroke-width: 0.3; stroke-linejoin: miter"/>
   </g>
   <g id="patch_4">
    <path d="M 14.674388 76.809806 
L 19.613376 76.809806 
L 19.613376 87.98856 
L 14.674388 87.98856 
z
" clip-path="url(#p033ddc5963)" style="fill: #7a3b9c; stroke: #ffffff; stroke-width: 0.3; stroke-linejoin: miter"/>
   </g>
   <g id="patch_5">
    <path d="M 14.674388 90.783248 
L 19.613376 90.783248 
L 19.613376 101.962002 
L 14.674388 101.962002 
z
" clip-path="url(#p033ddc5963)" style="fill: #ff9933; stroke: #ffffff; stroke-width: 0.3; stroke-linejoin: miter"/>
   </g>
   <g id="patch_6">
    <path d="M 14.674388 104.756691 
L 19.613376 104.756691 
L 19.613376 115.935444 
L 14.674388 115.935444 
z
" clip-path="url(#p033ddc5963)" style="fill: #7a3b9c; stroke: #ffffff; stroke-width: 0.3; stroke-linejoin: miter"/>
   </g>
   <g id="patch_7">
    <path d="M 14.674388 118.730133 
L 19.613376 118.730133 
L 19.613376 129.908887 
L 14.674388 129.908887 
z
" clip-path="url(#p033ddc5963)" style="fill: #ff9933; stroke: #ffffff; stroke-width: 0.3; stroke-linejoin: miter"/>
   </g>
   <g id="patch_8">
    <path d="M 14.674388 132.703575 
L 19.613376 132.703575 
L 19.613376 143.882329 
L 14.674388 143.882329 
z
" clip-path="url(#p033ddc5963)" style="fill: #7a3b9c; stroke: #ffffff; stroke-width: 0.3; stroke-linejoin: miter"/>
   </g>
   <g id="patch_9">
    <path d="M 14.674388 146.677017 
L 19.613376 146.677017 
L 19.613376 157.855771 
L 14.674388 157.855771 
z
" clip-path="url(#p033ddc5963)" style="fill: #7a3b9c; stroke: #ffffff; stroke-width: 0.3; stroke-linejoin: miter"/>
   </g>
   <g id="patch_10">
    <path d="M 14.674388 160.65046 
L 19.613376 160.65046 
L 19.613376 171.829213 
L 14.674388 171.829213 
z
" clip-path="url(#p033ddc5963)" style="fill: #ff9933; stroke: #ffffff; stroke-width: 0.3; stroke-linejoin: miter"/>
   </g>
   <g id="patch_11">
    <path d="M 14.674388 174.623902 
L 19.613376 174.623902 
L 19.613376 185.802656 
L 14.674388 185.802656 
z
" clip-path="url(#p033ddc5963)" style="fill: #ff9933; stroke: #ffffff; stroke-width: 0.3; stroke-linejoin: miter"/>
   </g>
   <g id="patch_12">
    <path d="M 14.674388 188.597344 
L 19.613376 188.597344 
L 19.613376 199.776098 
L 14.674388 199.776098 
z
" clip-path="url(#p033ddc5963)" style="fill: #7a3b9c; stroke: #ffffff; stroke-width: 0.3; stroke-linejoin: miter"/>
   </g>
   <g id="patch_13">
    <path d="M 14.674388 202.570787 
L 19.613376 202.570787 
L 19.613376 213.74954 
L 14.674388 213.74954 
z
" clip-path="url(#p033ddc5963)" style="fill: #ff9933; stroke: #ffffff; stroke-width: 0.3; stroke-linejoin: miter"/>
   </g>
   <g id="patch_14">
    <path d="M 14.674388 216.544229 
L 19.613376 216.544229 
L 19.613376 227.722983 
L 14.674388 227.722983 
z
" clip-path="url(#p033ddc5963)" style="fill: #ff9933; stroke: #ffffff; stroke-width: 0.3; stroke-linejoin: miter"/>
   </g>
   <g id="patch_15">
    <path d="M 14.674388 230.517671 
L 19.613376 230.517671 
L 19.613376 241.696425 
L 14.674388 241.696425 
z
" clip-path="url(#p033ddc5963)" style="fill: #7a3b9c; stroke: #ffffff; stroke-width: 0.3; stroke-linejoin: miter"/>
   </g>
   <g id="patch_16">
    <path d="M 14.674388 244.491113 
L 19.613376 244.491113 
L 19.613376 255.669867 
L 14.674388 255.669867 
z
" clip-path="url(#p033ddc5963)" style="fill: #ff9933; stroke: #ffffff; stroke-width: 0.3; stroke-linejoin: miter"/>
   </g>
   <g id="patch_17">
    <path d="M 14.674388 258.464556 
L 19.613376 258.464556 
L 19.613376 269.643309 
L 14.674388 269.643309 
z
" clip-path="url(#p033ddc5963)" style="fill: #ff9933; stroke: #ffffff; stroke-width: 0.3; stroke-linejoin: miter"/>
   </g>
   <g id="patch_18">
    <path d="M 14.674388 272.437998 
L 19.613376 272.437998 
L 19.613376 283.616752 
L 14.674388 283.616752 
z
" clip-path="url(#p033ddc5963)" style="fill: #7a3b9c; stroke: #ffffff; stroke-width: 0.3; stroke-linejoin: miter"/>
   </g>
   <g id="patch_19">
    <path d="M 14.674388 286.41144 
L 19.613376 286.41144 
L 19.613376 297.590194 
L 14.674388 297.590194 
z
" clip-path="url(#p033ddc5963)" style="fill: #ff9933; stroke: #ffffff; stroke-width: 0.3; stroke-linejoin: miter"/>
   </g>
   <g id="patch_20">
    <path d="M 14.674388 300.384883 
L 19.613376 300.384883 
L 19.613376 311.563636 
L 14.674388 311.563636 
z
" clip-path="url(#p033ddc5963)" style="fill: #7a3b9c; stroke: #ffffff; stroke-width: 0.3; stroke-linejoin: miter"/>
   </g>
   <g id="matplotlib.axis_1"/>
   <g id="matplotlib.axis_2">
    <g id="ytick_1">
     <g id="text_1">
      <!-- CR1 -->
      <g transform="translate(-14.923125 72.604881) scale(0.11 -0.11)">
       <defs>
        <path id="DejaVuSans-43" d="M 4122 4306 
L 4122 3641 
Q 3803 3938 3442 4084 
Q 3081 4231 2675 4231 
Q 1875 4231 1450 3742 
Q 1025 3253 1025 2328 
Q 1025 1406 1450 917 
Q 1875 428 2675 428 
Q 3081 428 3442 575 
Q 3803 722 4122 1019 
L 4122 359 
Q 3791 134 3420 21 
Q 3050 -91 2638 -91 
Q 1578 -91 968 557 
Q 359 1206 359 2328 
Q 359 3453 968 4101 
Q 1578 4750 2638 4750 
Q 3056 4750 3426 4639 
Q 3797 4528 4122 4306 
z
" transform="scale(0.015625)"/>
        <path id="DejaVuSans-52" d="M 2841 2188 
Q 3044 2119 3236 1894 
Q 3428 1669 3622 1275 
L 4263 0 
L 3584 0 
L 2988 1197 
Q 2756 1666 2539 1819 
Q 2322 1972 1947 1972 
L 1259 1972 
L 1259 0 
L 628 0 
L 628 4666 
L 2053 4666 
Q 2853 4666 3247 4331 
Q 3641 3997 3641 3322 
Q 3641 2881 3436 2590 
Q 3231 2300 2841 2188 
z
M 1259 4147 
L 1259 2491 
L 2053 2491 
Q 2509 2491 2742 2702 
Q 2975 2913 2975 3322 
Q 2975 3731 2742 3939 
Q 2509 4147 2053 4147 
L 1259 4147 
z
" transform="scale(0.015625)"/>
        <path id="DejaVuSans-31" d="M 794 531 
L 1825 531 
L 1825 4091 
L 703 3866 
L 703 4441 
L 1819 4666 
L 2450 4666 
L 2450 531 
L 3481 531 
L 3481 0 
L 794 0 
L 794 531 
z
" transform="scale(0.015625)"/>
       </defs>
       <use xlink:href="#DejaVuSans-43"/>
       <use xlink:href="#DejaVuSans-52" transform="translate(69.824219 0)"/>
       <use xlink:href="#DejaVuSans-31" transform="translate(139.306641 0)"/>
      </g>
     </g>
    </g>
    <g id="ytick_2">
     <g id="text_2">
      <!-- APP -->
      <g transform="translate(-13.39 86.578323) scale(0.11 -0.11)">
       <defs>
        <path id="DejaVuSans-41" d="M 2188 4044 
L 1331 1722 
L 3047 1722 
L 2188 4044 
z
M 1831 4666 
L 2547 4666 
L 4325 0 
L 3669 0 
L 3244 1197 
L 1141 1197 
L 716 0 
L 50 0 
L 1831 4666 
z
" transform="scale(0.015625)"/>
        <path id="DejaVuSans-50" d="M 1259 4147 
L 1259 2394 
L 2053 2394 
Q 2494 2394 2734 2622 
Q 2975 2850 2975 3272 
Q 2975 3691 2734 3919 
Q 2494 4147 2053 4147 
L 1259 4147 
z
M 628 4666 
L 2053 4666 
Q 2838 4666 3239 4311 
Q 3641 3956 3641 3272 
Q 3641 2581 3239 2228 
Q 2838 1875 2053 1875 
L 1259 1875 
L 1259 0 
L 628 0 
L 628 4666 
z
" transform="scale(0.015625)"/>
       </defs>
       <use xlink:href="#DejaVuSans-41"/>
       <use xlink:href="#DejaVuSans-50" transform="translate(68.408203 0)"/>
       <use xlink:href="#DejaVuSans-50" transform="translate(128.710938 0)"/>
      </g>
     </g>
    </g>
    <g id="ytick_3">
     <g id="text_3">
      <!-- CR1 -->
      <g transform="translate(-14.923125 100.551766) scale(0.11 -0.11)">
       <use xlink:href="#DejaVuSans-43"/>
       <use xlink:href="#DejaVuSans-52" transform="translate(69.824219 0)"/>
       <use xlink:href="#DejaVuSans-31" transform="translate(139.306641 0)"/>
      </g>
     </g>
    </g>
    <g id="ytick_4">
     <g id="text_4">
      <!-- TREM2 -->
      <g transform="translate(-30.402188 114.525208) scale(0.11 -0.11)">
       <defs>
        <path id="DejaVuSans-54" d="M -19 4666 
L 3928 4666 
L 3928 4134 
L 2272 4134 
L 2272 0 
L 1638 0 
L 1638 4134 
L -19 4134 
L -19 4666 
z
" transform="scale(0.015625)"/>
        <path id="DejaVuSans-45" d="M 628 4666 
L 3578 4666 
L 3578 4134 
L 1259 4134 
L 1259 2753 
L 3481 2753 
L 3481 2222 
L 1259 2222 
L 1259 531 
L 3634 531 
L 3634 0 
L 628 0 
L 628 4666 
z
" transform="scale(0.015625)"/>
        <path id="DejaVuSans-4d" d="M 628 4666 
L 1569 4666 
L 2759 1491 
L 3956 4666 
L 4897 4666 
L 4897 0 
L 4281 0 
L 4281 4097 
L 3078 897 
L 2444 897 
L 1241 4097 
L 1241 0 
L 628 0 
L 628 4666 
z
" transform="scale(0.015625)"/>
        <path id="DejaVuSans-32" d="M 1228 531 
L 3431 531 
L 3431 0 
L 469 0 
L 469 531 
Q 828 903 1448 1529 
Q 2069 2156 2228 2338 
Q 2531 2678 2651 2914 
Q 2772 3150 2772 3378 
Q 2772 3750 2511 3984 
Q 2250 4219 1831 4219 
Q 1534 4219 1204 4116 
Q 875 4013 500 3803 
L 500 4441 
Q 881 4594 1212 4672 
Q 1544 4750 1819 4750 
Q 2544 4750 2975 4387 
Q 3406 4025 3406 3419 
Q 3406 3131 3298 2873 
Q 3191 2616 2906 2266 
Q 2828 2175 2409 1742 
Q 1991 1309 1228 531 
z
" transform="scale(0.015625)"/>
       </defs>
       <use xlink:href="#DejaVuSans-54"/>
       <use xlink:href="#DejaVuSans-52" transform="translate(61.083984 0)"/>
       <use xlink:href="#DejaVuSans-45" transform="translate(130.566406 0)"/>
       <use xlink:href="#DejaVuSans-4d" transform="translate(193.75 0)"/>
       <use xlink:href="#DejaVuSans-32" transform="translate(280.029297 0)"/>
      </g>
     </g>
    </g>
    <g id="ytick_5">
     <g id="text_5">
      <!-- TREM2 -->
      <g transform="translate(-30.402188 128.49865) scale(0.11 -0.11)">
       <use xlink:href="#DejaVuSans-54"/>
       <use xlink:href="#DejaVuSans-52" transform="translate(61.083984 0)"/>
       <use xlink:href="#DejaVuSans-45" transform="translate(130.566406 0)"/>
       <use xlink:href="#DejaVuSans-4d" transform="translate(193.75 0)"/>
       <use xlink:href="#DejaVuSans-32" transform="translate(280.029297 0)"/>
      </g>
     </g>
    </g>
    <g id="ytick_6">
     <g id="text_6">
      <!-- SORL1 -->
      <g transform="translate(-29.013438 142.472093) scale(0.11 -0.11)">
       <defs>
        <path id="DejaVuSans-53" d="M 3425 4513 
L 3425 3897 
Q 3066 4069 2747 4153 
Q 2428 4238 2131 4238 
Q 1616 4238 1336 4038 
Q 1056 3838 1056 3469 
Q 1056 3159 1242 3001 
Q 1428 2844 1947 2747 
L 2328 2669 
Q 3034 2534 3370 2195 
Q 3706 1856 3706 1288 
Q 3706 609 3251 259 
Q 2797 -91 1919 -91 
Q 1588 -91 1214 -16 
Q 841 59 441 206 
L 441 856 
Q 825 641 1194 531 
Q 1563 422 1919 422 
Q 2459 422 2753 634 
Q 3047 847 3047 1241 
Q 3047 1584 2836 1778 
Q 2625 1972 2144 2069 
L 1759 2144 
Q 1053 2284 737 2584 
Q 422 2884 422 3419 
Q 422 4038 858 4394 
Q 1294 4750 2059 4750 
Q 2388 4750 2728 4690 
Q 3069 4631 3425 4513 
z
" transform="scale(0.015625)"/>
        <path id="DejaVuSans-4f" d="M 2522 4238 
Q 1834 4238 1429 3725 
Q 1025 3213 1025 2328 
Q 1025 1447 1429 934 
Q 1834 422 2522 422 
Q 3209 422 3611 934 
Q 4013 1447 4013 2328 
Q 4013 3213 3611 3725 
Q 3209 4238 2522 4238 
z
M 2522 4750 
Q 3503 4750 4090 4092 
Q 4678 3434 4678 2328 
Q 4678 1225 4090 567 
Q 3503 -91 2522 -91 
Q 1538 -91 948 565 
Q 359 1222 359 2328 
Q 359 3434 948 4092 
Q 1538 4750 2522 4750 
z
" transform="scale(0.015625)"/>
        <path id="DejaVuSans-4c" d="M 628 4666 
L 1259 4666 
L 1259 531 
L 3531 531 
L 3531 0 
L 628 0 
L 628 4666 
z
" transform="scale(0.015625)"/>
       </defs>
       <use xlink:href="#DejaVuSans-53"/>
       <use xlink:href="#DejaVuSans-4f" transform="translate(63.476562 0)"/>
       <use xlink:href="#DejaVuSans-52" transform="translate(142.1875 0)"/>
       <use xlink:href="#DejaVuSans-4c" transform="translate(211.669922 0)"/>
       <use xlink:href="#DejaVuSans-31" transform="translate(267.382812 0)"/>
      </g>
     </g>
    </g>
    <g id="ytick_7">
     <g id="text_7">
      <!-- PSEN1 -->
      <g transform="translate(-28.394688 156.445535) scale(0.11 -0.11)">
       <defs>
        <path id="DejaVuSans-4e" d="M 628 4666 
L 1478 4666 
L 3547 763 
L 3547 4666 
L 4159 4666 
L 4159 0 
L 3309 0 
L 1241 3903 
L 1241 0 
L 628 0 
L 628 4666 
z
" transform="scale(0.015625)"/>
       </defs>
       <use xlink:href="#DejaVuSans-50"/>
       <use xlink:href="#DejaVuSans-53" transform="translate(60.302734 0)"/>
       <use xlink:href="#DejaVuSans-45" transform="translate(123.779297 0)"/>
       <use xlink:href="#DejaVuSans-4e" transform="translate(186.962891 0)"/>
       <use xlink:href="#DejaVuSans-31" transform="translate(261.767578 0)"/>
      </g>
     </g>
    </g>
    <g id="ytick_8">
     <g id="text_8">
      <!-- SORL1 -->
      <g transform="translate(-29.013438 170.418977) scale(0.11 -0.11)">
       <use xlink:href="#DejaVuSans-53"/>
       <use xlink:href="#DejaVuSans-4f" transform="translate(63.476562 0)"/>
       <use xlink:href="#DejaVuSans-52" transform="translate(142.1875 0)"/>
       <use xlink:href="#DejaVuSans-4c" transform="translate(211.669922 0)"/>
       <use xlink:href="#DejaVuSans-31" transform="translate(267.382812 0)"/>
      </g>
     </g>
    </g>
    <g id="ytick_9">
     <g id="text_9">
      <!-- SPI1 -->
      <g transform="translate(-16.459688 184.392419) scale(0.11 -0.11)">
       <defs>
        <path id="DejaVuSans-49" d="M 628 4666 
L 1259 4666 
L 1259 0 
L 628 0 
L 628 4666 
z
" transform="scale(0.015625)"/>
       </defs>
       <use xlink:href="#DejaVuSans-53"/>
       <use xlink:href="#DejaVuSans-50" transform="translate(63.476562 0)"/>
       <use xlink:href="#DejaVuSans-49" transform="translate(123.779297 0)"/>
       <use xlink:href="#DejaVuSans-31" transform="translate(153.271484 0)"/>
      </g>
     </g>
    </g>
    <g id="ytick_10">
     <g id="text_10">
      <!-- SPI1 -->
      <g transform="translate(-16.459688 198.365862) scale(0.11 -0.11)">
       <use xlink:href="#DejaVuSans-53"/>
       <use xlink:href="#DejaVuSans-50" transform="translate(63.476562 0)"/>
       <use xlink:href="#DejaVuSans-49" transform="translate(123.779297 0)"/>
       <use xlink:href="#DejaVuSans-31" transform="translate(153.271484 0)"/>
      </g>
     </g>
    </g>
    <g id="ytick_11">
     <g id="text_11">
      <!-- PSEN1 -->
      <g transform="translate(-28.394688 212.339304) scale(0.11 -0.11)">
       <use xlink:href="#DejaVuSans-50"/>
       <use xlink:href="#DejaVuSans-53" transform="translate(60.302734 0)"/>
       <use xlink:href="#DejaVuSans-45" transform="translate(123.779297 0)"/>
       <use xlink:href="#DejaVuSans-4e" transform="translate(186.962891 0)"/>
       <use xlink:href="#DejaVuSans-31" transform="translate(261.767578 0)"/>
      </g>
     </g>
    </g>
    <g id="ytick_12">
     <g id="text_12">
      <!-- APP -->
      <g transform="translate(-13.39 226.312746) scale(0.11 -0.11)">
       <use xlink:href="#DejaVuSans-41"/>
       <use xlink:href="#DejaVuSans-50" transform="translate(68.408203 0)"/>
       <use xlink:href="#DejaVuSans-50" transform="translate(128.710938 0)"/>
      </g>
     </g>
    </g>
    <g id="ytick_13">
     <g id="text_13">
      <!-- ADAM10 -->
      <g transform="translate(-39.415312 240.286189) scale(0.11 -0.11)">
       <defs>
        <path id="DejaVuSans-44" d="M 1259 4147 
L 1259 519 
L 2022 519 
Q 2988 519 3436 956 
Q 3884 1394 3884 2338 
Q 3884 3275 3436 3711 
Q 2988 4147 2022 4147 
L 1259 4147 
z
M 628 4666 
L 1925 4666 
Q 3281 4666 3915 4102 
Q 4550 3538 4550 2338 
Q 4550 1131 3912 565 
Q 3275 0 1925 0 
L 628 0 
L 628 4666 
z
" transform="scale(0.015625)"/>
        <path id="DejaVuSans-30" d="M 2034 4250 
Q 1547 4250 1301 3770 
Q 1056 3291 1056 2328 
Q 1056 1369 1301 889 
Q 1547 409 2034 409 
Q 2525 409 2770 889 
Q 3016 1369 3016 2328 
Q 3016 3291 2770 3770 
Q 2525 4250 2034 4250 
z
M 2034 4750 
Q 2819 4750 3233 4129 
Q 3647 3509 3647 2328 
Q 3647 1150 3233 529 
Q 2819 -91 2034 -91 
Q 1250 -91 836 529 
Q 422 1150 422 2328 
Q 422 3509 836 4129 
Q 1250 4750 2034 4750 
z
" transform="scale(0.015625)"/>
       </defs>
       <use xlink:href="#DejaVuSans-41"/>
       <use xlink:href="#DejaVuSans-44" transform="translate(68.408203 0)"/>
       <use xlink:href="#DejaVuSans-41" transform="translate(143.660156 0)"/>
       <use xlink:href="#DejaVuSans-4d" transform="translate(212.068359 0)"/>
       <use xlink:href="#DejaVuSans-31" transform="translate(298.347656 0)"/>
       <use xlink:href="#DejaVuSans-30" transform="translate(361.970703 0)"/>
      </g>
     </g>
    </g>
    <g id="ytick_14">
     <g id="text_14">
      <!-- ADAM10 -->
      <g transform="translate(-39.415312 254.259631) scale(0.11 -0.11)">
       <use xlink:href="#DejaVuSans-41"/>
       <use xlink:href="#DejaVuSans-44" transform="translate(68.408203 0)"/>
       <use xlink:href="#DejaVuSans-41" transform="translate(143.660156 0)"/>
       <use xlink:href="#DejaVuSans-4d" transform="translate(212.068359 0)"/>
       <use xlink:href="#DejaVuSans-31" transform="translate(298.347656 0)"/>
       <use xlink:href="#DejaVuSans-30" transform="translate(361.970703 0)"/>
      </g>
     </g>
    </g>
    <g id="ytick_15">
     <g id="text_15">
      <!-- PICALM -->
      <g transform="translate(-33.303438 268.233073) scale(0.11 -0.11)">
       <use xlink:href="#DejaVuSans-50"/>
       <use xlink:href="#DejaVuSans-49" transform="translate(60.302734 0)"/>
       <use xlink:href="#DejaVuSans-43" transform="translate(89.794922 0)"/>
       <use xlink:href="#DejaVuSans-41" transform="translate(159.619141 0)"/>
       <use xlink:href="#DejaVuSans-4c" transform="translate(228.027344 0)"/>
       <use xlink:href="#DejaVuSans-4d" transform="translate(283.740234 0)"/>
      </g>
     </g>
    </g>
    <g id="ytick_16">
     <g id="text_16">
      <!-- PICALM -->
      <g transform="translate(-33.303438 282.206515) scale(0.11 -0.11)">
       <use xlink:href="#DejaVuSans-50"/>
       <use xlink:href="#DejaVuSans-49" transform="translate(60.302734 0)"/>
       <use xlink:href="#DejaVuSans-43" transform="translate(89.794922 0)"/>
       <use xlink:href="#DejaVuSans-41" transform="translate(159.619141 0)"/>
       <use xlink:href="#DejaVuSans-4c" transform="translate(228.027344 0)"/>
       <use xlink:href="#DejaVuSans-4d" transform="translate(283.740234 0)"/>
      </g>
     </g>
    </g>
    <g id="ytick_17">
     <g id="text_17">
      <!-- BIN1 -->
      <g transform="translate(-18.620156 296.179958) scale(0.11 -0.11)">
       <defs>
        <path id="DejaVuSans-42" d="M 1259 2228 
L 1259 519 
L 2272 519 
Q 2781 519 3026 730 
Q 3272 941 3272 1375 
Q 3272 1813 3026 2020 
Q 2781 2228 2272 2228 
L 1259 2228 
z
M 1259 4147 
L 1259 2741 
L 2194 2741 
Q 2656 2741 2882 2914 
Q 3109 3088 3109 3444 
Q 3109 3797 2882 3972 
Q 2656 4147 2194 4147 
L 1259 4147 
z
M 628 4666 
L 2241 4666 
Q 2963 4666 3353 4366 
Q 3744 4066 3744 3513 
Q 3744 3084 3544 2831 
Q 3344 2578 2956 2516 
Q 3422 2416 3680 2098 
Q 3938 1781 3938 1306 
Q 3938 681 3513 340 
Q 3088 0 2303 0 
L 628 0 
L 628 4666 
z
" transform="scale(0.015625)"/>
       </defs>
       <use xlink:href="#DejaVuSans-42"/>
       <use xlink:href="#DejaVuSans-49" transform="translate(68.603516 0)"/>
       <use xlink:href="#DejaVuSans-4e" transform="translate(98.095703 0)"/>
       <use xlink:href="#DejaVuSans-31" transform="translate(172.900391 0)"/>
      </g>
     </g>
    </g>
    <g id="ytick_18">
     <g id="text_18">
      <!-- BIN1 -->
      <g transform="translate(-18.620156 310.1534) scale(0.11 -0.11)">
       <use xlink:href="#DejaVuSans-42"/>
       <use xlink:href="#DejaVuSans-49" transform="translate(68.603516 0)"/>
       <use xlink:href="#DejaVuSans-4e" transform="translate(98.095703 0)"/>
       <use xlink:href="#DejaVuSans-31" transform="translate(172.900391 0)"/>
      </g>
     </g>
    </g>
   </g>
  </g>
  <g id="axes_2">
   <g id="patch_21">
    <path d="M 20.857269 324 
L 112.32 324 
L 112.32 50.4 
L 20.857269 50.4 
z
" style="fill: #ffffff"/>
   </g>
   <g id="patch_22">
    <path d="M 20.857269 62.836364 
L 20.857269 62.836364 
L 20.857269 74.015117 
L 20.857269 74.015117 
z
" clip-path="url(#pe4bc9889c1)" style="fill: #cccccc; stroke: #ffffff; stroke-width: 0.4; stroke-linejoin: miter"/>
   </g>
   <g id="patch_23">
    <path d="M 20.857269 76.809806 
L 20.871004 76.809806 
L 20.871004 87.98856 
L 20.857269 87.98856 
z
" clip-path="url(#pe4bc9889c1)" style="fill: #cccccc; stroke: #ffffff; stroke-width: 0.4; stroke-linejoin: miter"/>
   </g>
   <g id="patch_24">
    <path d="M 20.857269 90.783248 
L 20.857269 90.783248 
L 20.857269 101.962002 
L 20.857269 101.962002 
z
" clip-path="url(#pe4bc9889c1)" style="fill: #cccccc; stroke: #ffffff; stroke-width: 0.4; stroke-linejoin: miter"/>
   </g>
   <g id="patch_25">
    <path d="M 20.857269 104.756691 
L 20.857269 104.756691 
L 20.857269 115.935444 
L 20.857269 115.935444 
z
" clip-path="url(#pe4bc9889c1)" style="fill: #cccccc; stroke: #ffffff; stroke-width: 0.4; stroke-linejoin: miter"/>
   </g>
   <g id="patch_26">
    <path d="M 20.857269 118.730133 
L 20.857269 118.730133 
L 20.857269 129.908887 
L 20.857269 129.908887 
z
" clip-path="url(#pe4bc9889c1)" style="fill: #cccccc; stroke: #ffffff; stroke-width: 0.4; stroke-linejoin: miter"/>
   </g>
   <g id="patch_27">
    <path d="M 20.857269 132.703575 
L 20.85727 132.703575 
L 20.85727 143.882329 
L 20.857269 143.882329 
z
" clip-path="url(#pe4bc9889c1)" style="fill: #cccccc; stroke: #ffffff; stroke-width: 0.4; stroke-linejoin: miter"/>
   </g>
   <g id="patch_28">
    <path d="M 20.857269 146.677017 
L 74.117514 146.677017 
L 74.117514 157.855771 
L 20.857269 157.855771 
z
" clip-path="url(#pe4bc9889c1)" style="fill: #cccccc; stroke: #ffffff; stroke-width: 0.4; stroke-linejoin: miter"/>
   </g>
   <g id="patch_29">
    <path d="M 20.857269 160.65046 
L 20.85727 160.65046 
L 20.85727 171.829213 
L 20.857269 171.829213 
z
" clip-path="url(#pe4bc9889c1)" style="fill: #cccccc; stroke: #ffffff; stroke-width: 0.4; stroke-linejoin: miter"/>
   </g>
   <g id="patch_30">
    <path d="M 20.857269 174.623902 
L 20.857439 174.623902 
L 20.857439 185.802656 
L 20.857269 185.802656 
z
" clip-path="url(#pe4bc9889c1)" style="fill: #cccccc; stroke: #ffffff; stroke-width: 0.4; stroke-linejoin: miter"/>
   </g>
   <g id="patch_31">
    <path d="M 20.857269 188.597344 
L 20.857438 188.597344 
L 20.857438 199.776098 
L 20.857269 199.776098 
z
" clip-path="url(#pe4bc9889c1)" style="fill: #cccccc; stroke: #ffffff; stroke-width: 0.4; stroke-linejoin: miter"/>
   </g>
   <g id="patch_32">
    <path d="M 20.857269 202.570787 
L 93.644649 202.570787 
L 93.644649 213.74954 
L 20.857269 213.74954 
z
" clip-path="url(#pe4bc9889c1)" style="fill: #cccccc; stroke: #ffffff; stroke-width: 0.4; stroke-linejoin: miter"/>
   </g>
   <g id="patch_33">
    <path d="M 20.857269 216.544229 
L 20.858841 216.544229 
L 20.858841 227.722983 
L 20.857269 227.722983 
z
" clip-path="url(#pe4bc9889c1)" style="fill: #cccccc; stroke: #ffffff; stroke-width: 0.4; stroke-linejoin: miter"/>
   </g>
   <g id="patch_34">
    <path d="M 20.857269 230.517671 
L 20.857269 230.517671 
L 20.857269 241.696425 
L 20.857269 241.696425 
z
" clip-path="url(#pe4bc9889c1)" style="fill: #cccccc; stroke: #ffffff; stroke-width: 0.4; stroke-linejoin: miter"/>
   </g>
   <g id="patch_35">
    <path d="M 20.857269 244.491113 
L 20.857269 244.491113 
L 20.857269 255.669867 
L 20.857269 255.669867 
z
" clip-path="url(#pe4bc9889c1)" style="fill: #cccccc; stroke: #ffffff; stroke-width: 0.4; stroke-linejoin: miter"/>
   </g>
   <g id="patch_36">
    <path d="M 20.857269 258.464556 
L 20.857269 258.464556 
L 20.857269 269.643309 
L 20.857269 269.643309 
z
" clip-path="url(#pe4bc9889c1)" style="fill: #cccccc; stroke: #ffffff; stroke-width: 0.4; stroke-linejoin: miter"/>
   </g>
   <g id="patch_37">
    <path d="M 20.857269 272.437998 
L 20.857269 272.437998 
L 20.857269 283.616752 
L 20.857269 283.616752 
z
" clip-path="url(#pe4bc9889c1)" style="fill: #cccccc; stroke: #ffffff; stroke-width: 0.4; stroke-linejoin: miter"/>
   </g>
   <g id="patch_38">
    <path d="M 20.857269 286.41144 
L 20.857269 286.41144 
L 20.857269 297.590194 
L 20.857269 297.590194 
z
" clip-path="url(#pe4bc9889c1)" style="fill: #cccccc; stroke: #ffffff; stroke-width: 0.4; stroke-linejoin: miter"/>
   </g>
   <g id="patch_39">
    <path d="M 20.857269 300.384883 
L 20.857269 300.384883 
L 20.857269 311.563636 
L 20.857269 311.563636 
z
" clip-path="url(#pe4bc9889c1)" style="fill: #cccccc; stroke: #ffffff; stroke-width: 0.4; stroke-linejoin: miter"/>
   </g>
   <g id="patch_40">
    <path d="M 20.857269 62.836364 
L 20.885838 62.836364 
L 20.885838 74.015117 
L 20.857269 74.015117 
z
" clip-path="url(#pe4bc9889c1)" style="fill: #9ecae1; stroke: #ffffff; stroke-width: 0.4; stroke-linejoin: miter"/>
   </g>
   <g id="patch_41">
    <path d="M 20.871004 76.809806 
L 49.198483 76.809806 
L 49.198483 87.98856 
L 20.871004 87.98856 
z
" clip-path="url(#pe4bc9889c1)" style="fill: #9ecae1; stroke: #ffffff; stroke-width: 0.4; stroke-linejoin: miter"/>
   </g>
   <g id="patch_42">
    <path d="M 20.857269 90.783248 
L 75.181212 90.783248 
L 75.181212 101.962002 
L 20.857269 101.962002 
z
" clip-path="url(#pe4bc9889c1)" style="fill: #9ecae1; stroke: #ffffff; stroke-width: 0.4; stroke-linejoin: miter"/>
   </g>
   <g id="patch_43">
    <path d="M 20.857269 104.756691 
L 86.131326 104.756691 
L 86.131326 115.935444 
L 20.857269 115.935444 
z
" clip-path="url(#pe4bc9889c1)" style="fill: #9ecae1; stroke: #ffffff; stroke-width: 0.4; stroke-linejoin: miter"/>
   </g>
   <g id="patch_44">
    <path d="M 20.857269 118.730133 
L 88.160095 118.730133 
L 88.160095 129.908887 
L 20.857269 129.908887 
z
" clip-path="url(#pe4bc9889c1)" style="fill: #9ecae1; stroke: #ffffff; stroke-width: 0.4; stroke-linejoin: miter"/>
   </g>
   <g id="patch_45">
    <path d="M 20.85727 132.703575 
L 96.996222 132.703575 
L 96.996222 143.882329 
L 20.85727 143.882329 
z
" clip-path="url(#pe4bc9889c1)" style="fill: #9ecae1; stroke: #ffffff; stroke-width: 0.4; stroke-linejoin: miter"/>
   </g>
   <g id="patch_46">
    <path d="M 74.117514 146.677017 
L 82.331148 146.677017 
L 82.331148 157.855771 
L 74.117514 157.855771 
z
" clip-path="url(#pe4bc9889c1)" style="fill: #9ecae1; stroke: #ffffff; stroke-width: 0.4; stroke-linejoin: miter"/>
   </g>
   <g id="patch_47">
    <path d="M 20.85727 160.65046 
L 100.845875 160.65046 
L 100.845875 171.829213 
L 20.85727 171.829213 
z
" clip-path="url(#pe4bc9889c1)" style="fill: #9ecae1; stroke: #ffffff; stroke-width: 0.4; stroke-linejoin: miter"/>
   </g>
   <g id="patch_48">
    <path d="M 20.857439 174.623902 
L 104.179621 174.623902 
L 104.179621 185.802656 
L 20.857439 185.802656 
z
" clip-path="url(#pe4bc9889c1)" style="fill: #9ecae1; stroke: #ffffff; stroke-width: 0.4; stroke-linejoin: miter"/>
   </g>
   <g id="patch_49">
    <path d="M 20.857438 188.597344 
L 103.703968 188.597344 
L 103.703968 199.776098 
L 20.857438 199.776098 
z
" clip-path="url(#pe4bc9889c1)" style="fill: #9ecae1; stroke: #ffffff; stroke-width: 0.4; stroke-linejoin: miter"/>
   </g>
   <g id="patch_50">
    <path d="M 93.644649 202.570787 
L 104.869699 202.570787 
L 104.869699 213.74954 
L 93.644649 213.74954 
z
" clip-path="url(#pe4bc9889c1)" style="fill: #9ecae1; stroke: #ffffff; stroke-width: 0.4; stroke-linejoin: miter"/>
   </g>
   <g id="patch_51">
    <path d="M 20.858841 216.544229 
L 24.100678 216.544229 
L 24.100678 227.722983 
L 20.858841 227.722983 
z
" clip-path="url(#pe4bc9889c1)" style="fill: #9ecae1; stroke: #ffffff; stroke-width: 0.4; stroke-linejoin: miter"/>
   </g>
   <g id="patch_52">
    <path d="M 20.857269 230.517671 
L 20.891664 230.517671 
L 20.891664 241.696425 
L 20.857269 241.696425 
z
" clip-path="url(#pe4bc9889c1)" style="fill: #9ecae1; stroke: #ffffff; stroke-width: 0.4; stroke-linejoin: miter"/>
   </g>
   <g id="patch_53">
    <path d="M 20.857269 244.491113 
L 20.862542 244.491113 
L 20.862542 255.669867 
L 20.857269 255.669867 
z
" clip-path="url(#pe4bc9889c1)" style="fill: #9ecae1; stroke: #ffffff; stroke-width: 0.4; stroke-linejoin: miter"/>
   </g>
   <g id="patch_54">
    <path d="M 20.857269 258.464556 
L 21.318124 258.464556 
L 21.318124 269.643309 
L 20.857269 269.643309 
z
" clip-path="url(#pe4bc9889c1)" style="fill: #9ecae1; stroke: #ffffff; stroke-width: 0.4; stroke-linejoin: miter"/>
   </g>
   <g id="patch_55">
    <path d="M 20.857269 272.437998 
L 20.899418 272.437998 
L 20.899418 283.616752 
L 20.857269 283.616752 
z
" clip-path="url(#pe4bc9889c1)" style="fill: #9ecae1; stroke: #ffffff; stroke-width: 0.4; stroke-linejoin: miter"/>
   </g>
   <g id="patch_56">
    <path d="M 20.857269 286.41144 
L 20.85728 286.41144 
L 20.85728 297.590194 
L 20.857269 297.590194 
z
" clip-path="url(#pe4bc9889c1)" style="fill: #9ecae1; stroke: #ffffff; stroke-width: 0.4; stroke-linejoin: miter"/>
   </g>
   <g id="patch_57">
    <path d="M 20.857269 300.384883 
L 20.857269 300.384883 
L 20.857269 311.563636 
L 20.857269 311.563636 
z
" clip-path="url(#pe4bc9889c1)" style="fill: #9ecae1; stroke: #ffffff; stroke-width: 0.4; stroke-linejoin: miter"/>
   </g>
   <g id="patch_58">
    <path d="M 20.885838 62.836364 
L 20.885838 62.836364 
L 20.885838 74.015117 
L 20.885838 74.015117 
z
" clip-path="url(#pe4bc9889c1)" style="fill: #c6dbef; stroke: #ffffff; stroke-width: 0.4; stroke-linejoin: miter"/>
   </g>
   <g id="patch_59">
    <path d="M 49.198483 76.809806 
L 49.224726 76.809806 
L 49.224726 87.98856 
L 49.198483 87.98856 
z
" clip-path="url(#pe4bc9889c1)" style="fill: #c6dbef; stroke: #ffffff; stroke-width: 0.4; stroke-linejoin: miter"/>
   </g>
   <g id="patch_60">
    <path d="M 75.181212 90.783248 
L 75.181212 90.783248 
L 75.181212 101.962002 
L 75.181212 101.962002 
z
" clip-path="url(#pe4bc9889c1)" style="fill: #c6dbef; stroke: #ffffff; stroke-width: 0.4; stroke-linejoin: miter"/>
   </g>
   <g id="patch_61">
    <path d="M 86.131326 104.756691 
L 86.131326 104.756691 
L 86.131326 115.935444 
L 86.131326 115.935444 
z
" clip-path="url(#pe4bc9889c1)" style="fill: #c6dbef; stroke: #ffffff; stroke-width: 0.4; stroke-linejoin: miter"/>
   </g>
   <g id="patch_62">
    <path d="M 88.160095 118.730133 
L 88.160095 118.730133 
L 88.160095 129.908887 
L 88.160095 129.908887 
z
" clip-path="url(#pe4bc9889c1)" style="fill: #c6dbef; stroke: #ffffff; stroke-width: 0.4; stroke-linejoin: miter"/>
   </g>
   <g id="patch_63">
    <path d="M 96.996222 132.703575 
L 96.996222 132.703575 
L 96.996222 143.882329 
L 96.996222 143.882329 
z
" clip-path="url(#pe4bc9889c1)" style="fill: #c6dbef; stroke: #ffffff; stroke-width: 0.4; stroke-linejoin: miter"/>
   </g>
   <g id="patch_64">
    <path d="M 82.331148 146.677017 
L 105.386283 146.677017 
L 105.386283 157.855771 
L 82.331148 157.855771 
z
" clip-path="url(#pe4bc9889c1)" style="fill: #c6dbef; stroke: #ffffff; stroke-width: 0.4; stroke-linejoin: miter"/>
   </g>
   <g id="patch_65">
    <path d="M 100.845875 160.65046 
L 100.845875 160.65046 
L 100.845875 171.829213 
L 100.845875 171.829213 
z
" clip-path="url(#pe4bc9889c1)" style="fill: #c6dbef; stroke: #ffffff; stroke-width: 0.4; stroke-linejoin: miter"/>
   </g>
   <g id="patch_66">
    <path d="M 104.179621 174.623902 
L 104.179631 174.623902 
L 104.179631 185.802656 
L 104.179621 185.802656 
z
" clip-path="url(#pe4bc9889c1)" style="fill: #c6dbef; stroke: #ffffff; stroke-width: 0.4; stroke-linejoin: miter"/>
   </g>
   <g id="patch_67">
    <path d="M 103.703968 188.597344 
L 103.703982 188.597344 
L 103.703982 199.776098 
L 103.703968 199.776098 
z
" clip-path="url(#pe4bc9889c1)" style="fill: #c6dbef; stroke: #ffffff; stroke-width: 0.4; stroke-linejoin: miter"/>
   </g>
   <g id="patch_68">
    <path d="M 104.869699 202.570787 
L 110.658124 202.570787 
L 110.658124 213.74954 
L 104.869699 213.74954 
z
" clip-path="url(#pe4bc9889c1)" style="fill: #c6dbef; stroke: #ffffff; stroke-width: 0.4; stroke-linejoin: miter"/>
   </g>
   <g id="patch_69">
    <path d="M 24.100678 216.544229 
L 24.143349 216.544229 
L 24.143349 227.722983 
L 24.100678 227.722983 
z
" clip-path="url(#pe4bc9889c1)" style="fill: #c6dbef; stroke: #ffffff; stroke-width: 0.4; stroke-linejoin: miter"/>
   </g>
   <g id="patch_70">
    <path d="M 20.891664 230.517671 
L 20.891993 230.517671 
L 20.891993 241.696425 
L 20.891664 241.696425 
z
" clip-path="url(#pe4bc9889c1)" style="fill: #c6dbef; stroke: #ffffff; stroke-width: 0.4; stroke-linejoin: miter"/>
   </g>
   <g id="patch_71">
    <path d="M 20.862542 244.491113 
L 20.862872 244.491113 
L 20.862872 255.669867 
L 20.862542 255.669867 
z
" clip-path="url(#pe4bc9889c1)" style="fill: #c6dbef; stroke: #ffffff; stroke-width: 0.4; stroke-linejoin: miter"/>
   </g>
   <g id="patch_72">
    <path d="M 21.318124 258.464556 
L 21.318124 258.464556 
L 21.318124 269.643309 
L 21.318124 269.643309 
z
" clip-path="url(#pe4bc9889c1)" style="fill: #c6dbef; stroke: #ffffff; stroke-width: 0.4; stroke-linejoin: miter"/>
   </g>
   <g id="patch_73">
    <path d="M 20.899418 272.437998 
L 20.899418 272.437998 
L 20.899418 283.616752 
L 20.899418 283.616752 
z
" clip-path="url(#pe4bc9889c1)" style="fill: #c6dbef; stroke: #ffffff; stroke-width: 0.4; stroke-linejoin: miter"/>
   </g>
   <g id="patch_74">
    <path d="M 20.85728 286.41144 
L 20.85728 286.41144 
L 20.85728 297.590194 
L 20.85728 297.590194 
z
" clip-path="url(#pe4bc9889c1)" style="fill: #c6dbef; stroke: #ffffff; stroke-width: 0.4; stroke-linejoin: miter"/>
   </g>
   <g id="patch_75">
    <path d="M 20.857269 300.384883 
L 20.857269 300.384883 
L 20.857269 311.563636 
L 20.857269 311.563636 
z
" clip-path="url(#pe4bc9889c1)" style="fill: #c6dbef; stroke: #ffffff; stroke-width: 0.4; stroke-linejoin: miter"/>
   </g>
   <g id="patch_76">
    <path d="M 20.885838 62.836364 
L 21.540707 62.836364 
L 21.540707 74.015117 
L 20.885838 74.015117 
z
" clip-path="url(#pe4bc9889c1)" style="fill: #fdae6b; stroke: #ffffff; stroke-width: 0.4; stroke-linejoin: miter"/>
   </g>
   <g id="patch_77">
    <path d="M 49.224726 76.809806 
L 103.337755 76.809806 
L 103.337755 87.98856 
L 49.224726 87.98856 
z
" clip-path="url(#pe4bc9889c1)" style="fill: #fdae6b; stroke: #ffffff; stroke-width: 0.4; stroke-linejoin: miter"/>
   </g>
   <g id="patch_78">
    <path d="M 75.181212 90.783248 
L 106.422618 90.783248 
L 106.422618 101.962002 
L 75.181212 101.962002 
z
" clip-path="url(#pe4bc9889c1)" style="fill: #fdae6b; stroke: #ffffff; stroke-width: 0.4; stroke-linejoin: miter"/>
   </g>
   <g id="patch_79">
    <path d="M 86.131326 104.756691 
L 106.636341 104.756691 
L 106.636341 115.935444 
L 86.131326 115.935444 
z
" clip-path="url(#pe4bc9889c1)" style="fill: #fdae6b; stroke: #ffffff; stroke-width: 0.4; stroke-linejoin: miter"/>
   </g>
   <g id="patch_80">
    <path d="M 88.160095 118.730133 
L 107.137221 118.730133 
L 107.137221 129.908887 
L 88.160095 129.908887 
z
" clip-path="url(#pe4bc9889c1)" style="fill: #fdae6b; stroke: #ffffff; stroke-width: 0.4; stroke-linejoin: miter"/>
   </g>
   <g id="patch_81">
    <path d="M 96.996222 132.703575 
L 107.617507 132.703575 
L 107.617507 143.882329 
L 96.996222 143.882329 
z
" clip-path="url(#pe4bc9889c1)" style="fill: #fdae6b; stroke: #ffffff; stroke-width: 0.4; stroke-linejoin: miter"/>
   </g>
   <g id="patch_82">
    <path d="M 105.386283 146.677017 
L 108.938395 146.677017 
L 108.938395 157.855771 
L 105.386283 157.855771 
z
" clip-path="url(#pe4bc9889c1)" style="fill: #fdae6b; stroke: #ffffff; stroke-width: 0.4; stroke-linejoin: miter"/>
   </g>
   <g id="patch_83">
    <path d="M 100.845875 160.65046 
L 109.07556 160.65046 
L 109.07556 171.829213 
L 100.845875 171.829213 
z
" clip-path="url(#pe4bc9889c1)" style="fill: #fdae6b; stroke: #ffffff; stroke-width: 0.4; stroke-linejoin: miter"/>
   </g>
   <g id="patch_84">
    <path d="M 104.179631 174.623902 
L 109.351592 174.623902 
L 109.351592 185.802656 
L 104.179631 185.802656 
z
" clip-path="url(#pe4bc9889c1)" style="fill: #fdae6b; stroke: #ffffff; stroke-width: 0.4; stroke-linejoin: miter"/>
   </g>
   <g id="patch_85">
    <path d="M 103.703982 188.597344 
L 110.607106 188.597344 
L 110.607106 199.776098 
L 103.703982 199.776098 
z
" clip-path="url(#pe4bc9889c1)" style="fill: #fdae6b; stroke: #ffffff; stroke-width: 0.4; stroke-linejoin: miter"/>
   </g>
   <g id="patch_86">
    <path d="M 110.658124 202.570787 
L 111.550027 202.570787 
L 111.550027 213.74954 
L 110.658124 213.74954 
z
" clip-path="url(#pe4bc9889c1)" style="fill: #fdae6b; stroke: #ffffff; stroke-width: 0.4; stroke-linejoin: miter"/>
   </g>
   <g id="patch_87">
    <path d="M 24.143349 216.544229 
L 112.14335 216.544229 
L 112.14335 227.722983 
L 24.143349 227.722983 
z
" clip-path="url(#pe4bc9889c1)" style="fill: #fdae6b; stroke: #ffffff; stroke-width: 0.4; stroke-linejoin: miter"/>
   </g>
   <g id="patch_88">
    <path d="M 20.891993 230.517671 
L 112.286742 230.517671 
L 112.286742 241.696425 
L 20.891993 241.696425 
z
" clip-path="url(#pe4bc9889c1)" style="fill: #fdae6b; stroke: #ffffff; stroke-width: 0.4; stroke-linejoin: miter"/>
   </g>
   <g id="patch_89">
    <path d="M 20.862872 244.491113 
L 112.290339 244.491113 
L 112.290339 255.669867 
L 20.862872 255.669867 
z
" clip-path="url(#pe4bc9889c1)" style="fill: #fdae6b; stroke: #ffffff; stroke-width: 0.4; stroke-linejoin: miter"/>
   </g>
   <g id="patch_90">
    <path d="M 21.318124 258.464556 
L 112.312974 258.464556 
L 112.312974 269.643309 
L 21.318124 269.643309 
z
" clip-path="url(#pe4bc9889c1)" style="fill: #fdae6b; stroke: #ffffff; stroke-width: 0.4; stroke-linejoin: miter"/>
   </g>
   <g id="patch_91">
    <path d="M 20.899418 272.437998 
L 112.31772 272.437998 
L 112.31772 283.616752 
L 20.899418 283.616752 
z
" clip-path="url(#pe4bc9889c1)" style="fill: #fdae6b; stroke: #ffffff; stroke-width: 0.4; stroke-linejoin: miter"/>
   </g>
   <g id="patch_92">
    <path d="M 20.85728 286.41144 
L 112.319999 286.41144 
L 112.319999 297.590194 
L 20.85728 297.590194 
z
" clip-path="url(#pe4bc9889c1)" style="fill: #fdae6b; stroke: #ffffff; stroke-width: 0.4; stroke-linejoin: miter"/>
   </g>
   <g id="patch_93">
    <path d="M 20.857269 300.384883 
L 112.32 300.384883 
L 112.32 311.563636 
L 20.857269 311.563636 
z
" clip-path="url(#pe4bc9889c1)" style="fill: #fdae6b; stroke: #ffffff; stroke-width: 0.4; stroke-linejoin: miter"/>
   </g>
   <g id="patch_94">
    <path d="M 21.540707 62.836364 
L 112.32 62.836364 
L 112.32 74.015117 
L 21.540707 74.015117 
z
" clip-path="url(#pe4bc9889c1)" style="fill: #2ca02c; stroke: #ffffff; stroke-width: 0.4; stroke-linejoin: miter"/>
   </g>
   <g id="patch_95">
    <path d="M 103.337755 76.809806 
L 112.32 76.809806 
L 112.32 87.98856 
L 103.337755 87.98856 
z
" clip-path="url(#pe4bc9889c1)" style="fill: #2ca02c; stroke: #ffffff; stroke-width: 0.4; stroke-linejoin: miter"/>
   </g>
   <g id="patch_96">
    <path d="M 106.422618 90.783248 
L 112.32 90.783248 
L 112.32 101.962002 
L 106.422618 101.962002 
z
" clip-path="url(#pe4bc9889c1)" style="fill: #2ca02c; stroke: #ffffff; stroke-width: 0.4; stroke-linejoin: miter"/>
   </g>
   <g id="patch_97">
    <path d="M 106.636341 104.756691 
L 112.32 104.756691 
L 112.32 115.935444 
L 106.636341 115.935444 
z
" clip-path="url(#pe4bc9889c1)" style="fill: #2ca02c; stroke: #ffffff; stroke-width: 0.4; stroke-linejoin: miter"/>
   </g>
   <g id="patch_98">
    <path d="M 107.137221 118.730133 
L 112.32 118.730133 
L 112.32 129.908887 
L 107.137221 129.908887 
z
" clip-path="url(#pe4bc9889c1)" style="fill: #2ca02c; stroke: #ffffff; stroke-width: 0.4; stroke-linejoin: miter"/>
   </g>
   <g id="patch_99">
    <path d="M 107.617507 132.703575 
L 112.32 132.703575 
L 112.32 143.882329 
L 107.617507 143.882329 
z
" clip-path="url(#pe4bc9889c1)" style="fill: #2ca02c; stroke: #ffffff; stroke-width: 0.4; stroke-linejoin: miter"/>
   </g>
   <g id="patch_100">
    <path d="M 108.938395 146.677017 
L 112.32 146.677017 
L 112.32 157.855771 
L 108.938395 157.855771 
z
" clip-path="url(#pe4bc9889c1)" style="fill: #2ca02c; stroke: #ffffff; stroke-width: 0.4; stroke-linejoin: miter"/>
   </g>
   <g id="patch_101">
    <path d="M 109.07556 160.65046 
L 112.32 160.65046 
L 112.32 171.829213 
L 109.07556 171.829213 
z
" clip-path="url(#pe4bc9889c1)" style="fill: #2ca02c; stroke: #ffffff; stroke-width: 0.4; stroke-linejoin: miter"/>
   </g>
   <g id="patch_102">
    <path d="M 109.351592 174.623902 
L 112.32 174.623902 
L 112.32 185.802656 
L 109.351592 185.802656 
z
" clip-path="url(#pe4bc9889c1)" style="fill: #2ca02c; stroke: #ffffff; stroke-width: 0.4; stroke-linejoin: miter"/>
   </g>
   <g id="patch_103">
    <path d="M 110.607106 188.597344 
L 112.32 188.597344 
L 112.32 199.776098 
L 110.607106 199.776098 
z
" clip-path="url(#pe4bc9889c1)" style="fill: #2ca02c; stroke: #ffffff; stroke-width: 0.4; stroke-linejoin: miter"/>
   </g>
   <g id="patch_104">
    <path d="M 111.550027 202.570787 
L 112.32 202.570787 
L 112.32 213.74954 
L 111.550027 213.74954 
z
" clip-path="url(#pe4bc9889c1)" style="fill: #2ca02c; stroke: #ffffff; stroke-width: 0.4; stroke-linejoin: miter"/>
   </g>
   <g id="patch_105">
    <path d="M 112.14335 216.544229 
L 112.32 216.544229 
L 112.32 227.722983 
L 112.14335 227.722983 
z
" clip-path="url(#pe4bc9889c1)" style="fill: #2ca02c; stroke: #ffffff; stroke-width: 0.4; stroke-linejoin: miter"/>
   </g>
   <g id="patch_106">
    <path d="M 112.286742 230.517671 
L 112.32 230.517671 
L 112.32 241.696425 
L 112.286742 241.696425 
z
" clip-path="url(#pe4bc9889c1)" style="fill: #2ca02c; stroke: #ffffff; stroke-width: 0.4; stroke-linejoin: miter"/>
   </g>
   <g id="patch_107">
    <path d="M 112.290339 244.491113 
L 112.32 244.491113 
L 112.32 255.669867 
L 112.290339 255.669867 
z
" clip-path="url(#pe4bc9889c1)" style="fill: #2ca02c; stroke: #ffffff; stroke-width: 0.4; stroke-linejoin: miter"/>
   </g>
   <g id="patch_108">
    <path d="M 112.312974 258.464556 
L 112.32 258.464556 
L 112.32 269.643309 
L 112.312974 269.643309 
z
" clip-path="url(#pe4bc9889c1)" style="fill: #2ca02c; stroke: #ffffff; stroke-width: 0.4; stroke-linejoin: miter"/>
   </g>
   <g id="patch_109">
    <path d="M 112.31772 272.437998 
L 112.32 272.437998 
L 112.32 283.616752 
L 112.31772 283.616752 
z
" clip-path="url(#pe4bc9889c1)" style="fill: #2ca02c; stroke: #ffffff; stroke-width: 0.4; stroke-linejoin: miter"/>
   </g>
   <g id="patch_110">
    <path d="M 112.319999 286.41144 
L 112.32 286.41144 
L 112.32 297.590194 
L 112.319999 297.590194 
z
" clip-path="url(#pe4bc9889c1)" style="fill: #2ca02c; stroke: #ffffff; stroke-width: 0.4; stroke-linejoin: miter"/>
   </g>
   <g id="patch_111">
    <path d="M 112.32 300.384883 
L 112.32 300.384883 
L 112.32 311.563636 
L 112.32 311.563636 
z
" clip-path="url(#pe4bc9889c1)" style="fill: #2ca02c; stroke: #ffffff; stroke-width: 0.4; stroke-linejoin: miter"/>
   </g>
   <g id="matplotlib.axis_3">
    <g id="xtick_1">
     <g id="line2d_1">
      <defs>
       <path id="m7cea147b59" d="M 0 0 
L 0 3.5 
" style="stroke: #000000; stroke-width: 0.8"/>
      </defs>
      <g>
       <use xlink:href="#m7cea147b59" x="20.857269" y="324" style="stroke: #000000; stroke-width: 0.8"/>
      </g>
     </g>
     <g id="text_19">
      <!-- 0.0 -->
      <g transform="translate(12.905706 338.598437) scale(0.1 -0.1)">
       <defs>
        <path id="DejaVuSans-2e" d="M 684 794 
L 1344 794 
L 1344 0 
L 684 0 
L 684 794 
z
" transform="scale(0.015625)"/>
       </defs>
       <use xlink:href="#DejaVuSans-30"/>
       <use xlink:href="#DejaVuSans-2e" transform="translate(63.623047 0)"/>
       <use xlink:href="#DejaVuSans-30" transform="translate(95.410156 0)"/>
      </g>
     </g>
    </g>
    <g id="xtick_2">
     <g id="line2d_2">
      <g>
       <use xlink:href="#m7cea147b59" x="66.588634" y="324" style="stroke: #000000; stroke-width: 0.8"/>
      </g>
     </g>
     <g id="text_20">
      <!-- 0.5 -->
      <g transform="translate(58.637072 338.598437) scale(0.1 -0.1)">
       <defs>
        <path id="DejaVuSans-35" d="M 691 4666 
L 3169 4666 
L 3169 4134 
L 1269 4134 
L 1269 2991 
Q 1406 3038 1543 3061 
Q 1681 3084 1819 3084 
Q 2600 3084 3056 2656 
Q 3513 2228 3513 1497 
Q 3513 744 3044 326 
Q 2575 -91 1722 -91 
Q 1428 -91 1123 -41 
Q 819 9 494 109 
L 494 744 
Q 775 591 1075 516 
Q 1375 441 1709 441 
Q 2250 441 2565 725 
Q 2881 1009 2881 1497 
Q 2881 1984 2565 2268 
Q 2250 2553 1709 2553 
Q 1456 2553 1204 2497 
Q 953 2441 691 2322 
L 691 4666 
z
" transform="scale(0.015625)"/>
       </defs>
       <use xlink:href="#DejaVuSans-30"/>
       <use xlink:href="#DejaVuSans-2e" transform="translate(63.623047 0)"/>
       <use xlink:href="#DejaVuSans-35" transform="translate(95.410156 0)"/>
      </g>
     </g>
    </g>
    <g id="xtick_3">
     <g id="line2d_3">
      <g>
       <use xlink:href="#m7cea147b59" x="112.32" y="324" style="stroke: #000000; stroke-width: 0.8"/>
      </g>
     </g>
     <g id="text_21">
      <!-- 1.0 -->
      <g transform="translate(104.368438 338.598437) scale(0.1 -0.1)">
       <use xlink:href="#DejaVuSans-31"/>
       <use xlink:href="#DejaVuSans-2e" transform="translate(63.623047 0)"/>
       <use xlink:href="#DejaVuSans-30" transform="translate(95.410156 0)"/>
      </g>
     </g>
    </g>
    <g id="text_22">
     <!-- Coloc-ABF posterior probability -->
     <g transform="translate(-26.356991 353.79625) scale(0.12 -0.12)">
      <defs>
       <path id="DejaVuSans-6f" d="M 1959 3097 
Q 1497 3097 1228 2736 
Q 959 2375 959 1747 
Q 959 1119 1226 758 
Q 1494 397 1959 397 
Q 2419 397 2687 759 
Q 2956 1122 2956 1747 
Q 2956 2369 2687 2733 
Q 2419 3097 1959 3097 
z
M 1959 3584 
Q 2709 3584 3137 3096 
Q 3566 2609 3566 1747 
Q 3566 888 3137 398 
Q 2709 -91 1959 -91 
Q 1206 -91 779 398 
Q 353 888 353 1747 
Q 353 2609 779 3096 
Q 1206 3584 1959 3584 
z
" transform="scale(0.015625)"/>
       <path id="DejaVuSans-6c" d="M 603 4863 
L 1178 4863 
L 1178 0 
L 603 0 
L 603 4863 
z
" transform="scale(0.015625)"/>
       <path id="DejaVuSans-63" d="M 3122 3366 
L 3122 2828 
Q 2878 2963 2633 3030 
Q 2388 3097 2138 3097 
Q 1578 3097 1268 2742 
Q 959 2388 959 1747 
Q 959 1106 1268 751 
Q 1578 397 2138 397 
Q 2388 397 2633 464 
Q 2878 531 3122 666 
L 3122 134 
Q 2881 22 2623 -34 
Q 2366 -91 2075 -91 
Q 1284 -91 818 406 
Q 353 903 353 1747 
Q 353 2603 823 3093 
Q 1294 3584 2113 3584 
Q 2378 3584 2631 3529 
Q 2884 3475 3122 3366 
z
" transform="scale(0.015625)"/>
       <path id="DejaVuSans-2d" d="M 313 2009 
L 1997 2009 
L 1997 1497 
L 313 1497 
L 313 2009 
z
" transform="scale(0.015625)"/>
       <path id="DejaVuSans-46" d="M 628 4666 
L 3309 4666 
L 3309 4134 
L 1259 4134 
L 1259 2759 
L 3109 2759 
L 3109 2228 
L 1259 2228 
L 1259 0 
L 628 0 
L 628 4666 
z
" transform="scale(0.015625)"/>
       <path id="DejaVuSans-20" transform="scale(0.015625)"/>
       <path id="DejaVuSans-70" d="M 1159 525 
L 1159 -1331 
L 581 -1331 
L 581 3500 
L 1159 3500 
L 1159 2969 
Q 1341 3281 1617 3432 
Q 1894 3584 2278 3584 
Q 2916 3584 3314 3078 
Q 3713 2572 3713 1747 
Q 3713 922 3314 415 
Q 2916 -91 2278 -91 
Q 1894 -91 1617 61 
Q 1341 213 1159 525 
z
M 3116 1747 
Q 3116 2381 2855 2742 
Q 2594 3103 2138 3103 
Q 1681 3103 1420 2742 
Q 1159 2381 1159 1747 
Q 1159 1113 1420 752 
Q 1681 391 2138 391 
Q 2594 391 2855 752 
Q 3116 1113 3116 1747 
z
" transform="scale(0.015625)"/>
       <path id="DejaVuSans-73" d="M 2834 3397 
L 2834 2853 
Q 2591 2978 2328 3040 
Q 2066 3103 1784 3103 
Q 1356 3103 1142 2972 
Q 928 2841 928 2578 
Q 928 2378 1081 2264 
Q 1234 2150 1697 2047 
L 1894 2003 
Q 2506 1872 2764 1633 
Q 3022 1394 3022 966 
Q 3022 478 2636 193 
Q 2250 -91 1575 -91 
Q 1294 -91 989 -36 
Q 684 19 347 128 
L 347 722 
Q 666 556 975 473 
Q 1284 391 1588 391 
Q 1994 391 2212 530 
Q 2431 669 2431 922 
Q 2431 1156 2273 1281 
Q 2116 1406 1581 1522 
L 1381 1569 
Q 847 1681 609 1914 
Q 372 2147 372 2553 
Q 372 3047 722 3315 
Q 1072 3584 1716 3584 
Q 2034 3584 2315 3537 
Q 2597 3491 2834 3397 
z
" transform="scale(0.015625)"/>
       <path id="DejaVuSans-74" d="M 1172 4494 
L 1172 3500 
L 2356 3500 
L 2356 3053 
L 1172 3053 
L 1172 1153 
Q 1172 725 1289 603 
Q 1406 481 1766 481 
L 2356 481 
L 2356 0 
L 1766 0 
Q 1100 0 847 248 
Q 594 497 594 1153 
L 594 3053 
L 172 3053 
L 172 3500 
L 594 3500 
L 594 4494 
L 1172 4494 
z
" transform="scale(0.015625)"/>
       <path id="DejaVuSans-65" d="M 3597 1894 
L 3597 1613 
L 953 1613 
Q 991 1019 1311 708 
Q 1631 397 2203 397 
Q 2534 397 2845 478 
Q 3156 559 3463 722 
L 3463 178 
Q 3153 47 2828 -22 
Q 2503 -91 2169 -91 
Q 1331 -91 842 396 
Q 353 884 353 1716 
Q 353 2575 817 3079 
Q 1281 3584 2069 3584 
Q 2775 3584 3186 3129 
Q 3597 2675 3597 1894 
z
M 3022 2063 
Q 3016 2534 2758 2815 
Q 2500 3097 2075 3097 
Q 1594 3097 1305 2825 
Q 1016 2553 972 2059 
L 3022 2063 
z
" transform="scale(0.015625)"/>
       <path id="DejaVuSans-72" d="M 2631 2963 
Q 2534 3019 2420 3045 
Q 2306 3072 2169 3072 
Q 1681 3072 1420 2755 
Q 1159 2438 1159 1844 
L 1159 0 
L 581 0 
L 581 3500 
L 1159 3500 
L 1159 2956 
Q 1341 3275 1631 3429 
Q 1922 3584 2338 3584 
Q 2397 3584 2469 3576 
Q 2541 3569 2628 3553 
L 2631 2963 
z
" transform="scale(0.015625)"/>
       <path id="DejaVuSans-69" d="M 603 3500 
L 1178 3500 
L 1178 0 
L 603 0 
L 603 3500 
z
M 603 4863 
L 1178 4863 
L 1178 4134 
L 603 4134 
L 603 4863 
z
" transform="scale(0.015625)"/>
       <path id="DejaVuSans-62" d="M 3116 1747 
Q 3116 2381 2855 2742 
Q 2594 3103 2138 3103 
Q 1681 3103 1420 2742 
Q 1159 2381 1159 1747 
Q 1159 1113 1420 752 
Q 1681 391 2138 391 
Q 2594 391 2855 752 
Q 3116 1113 3116 1747 
z
M 1159 2969 
Q 1341 3281 1617 3432 
Q 1894 3584 2278 3584 
Q 2916 3584 3314 3078 
Q 3713 2572 3713 1747 
Q 3713 922 3314 415 
Q 2916 -91 2278 -91 
Q 1894 -91 1617 61 
Q 1341 213 1159 525 
L 1159 0 
L 581 0 
L 581 4863 
L 1159 4863 
L 1159 2969 
z
" transform="scale(0.015625)"/>
       <path id="DejaVuSans-61" d="M 2194 1759 
Q 1497 1759 1228 1600 
Q 959 1441 959 1056 
Q 959 750 1161 570 
Q 1363 391 1709 391 
Q 2188 391 2477 730 
Q 2766 1069 2766 1631 
L 2766 1759 
L 2194 1759 
z
M 3341 1997 
L 3341 0 
L 2766 0 
L 2766 531 
Q 2569 213 2275 61 
Q 1981 -91 1556 -91 
Q 1019 -91 701 211 
Q 384 513 384 1019 
Q 384 1609 779 1909 
Q 1175 2209 1959 2209 
L 2766 2209 
L 2766 2266 
Q 2766 2663 2505 2880 
Q 2244 3097 1772 3097 
Q 1472 3097 1187 3025 
Q 903 2953 641 2809 
L 641 3341 
Q 956 3463 1253 3523 
Q 1550 3584 1831 3584 
Q 2591 3584 2966 3190 
Q 3341 2797 3341 1997 
z
" transform="scale(0.015625)"/>
       <path id="DejaVuSans-79" d="M 2059 -325 
Q 1816 -950 1584 -1140 
Q 1353 -1331 966 -1331 
L 506 -1331 
L 506 -850 
L 844 -850 
Q 1081 -850 1212 -737 
Q 1344 -625 1503 -206 
L 1606 56 
L 191 3500 
L 800 3500 
L 1894 763 
L 2988 3500 
L 3597 3500 
L 2059 -325 
z
" transform="scale(0.015625)"/>
      </defs>
      <use xlink:href="#DejaVuSans-43"/>
      <use xlink:href="#DejaVuSans-6f" transform="translate(69.824219 0)"/>
      <use xlink:href="#DejaVuSans-6c" transform="translate(131.005859 0)"/>
      <use xlink:href="#DejaVuSans-6f" transform="translate(158.789062 0)"/>
      <use xlink:href="#DejaVuSans-63" transform="translate(219.970703 0)"/>
      <use xlink:href="#DejaVuSans-2d" transform="translate(274.951172 0)"/>
      <use xlink:href="#DejaVuSans-41" transform="translate(308.785156 0)"/>
      <use xlink:href="#DejaVuSans-42" transform="translate(377.193359 0)"/>
      <use xlink:href="#DejaVuSans-46" transform="translate(445.796875 0)"/>
      <use xlink:href="#DejaVuSans-20" transform="translate(503.316406 0)"/>
      <use xlink:href="#DejaVuSans-70" transform="translate(535.103516 0)"/>
      <use xlink:href="#DejaVuSans-6f" transform="translate(598.580078 0)"/>
      <use xlink:href="#DejaVuSans-73" transform="translate(659.761719 0)"/>
      <use xlink:href="#DejaVuSans-74" transform="translate(711.861328 0)"/>
      <use xlink:href="#DejaVuSans-65" transform="translate(751.070312 0)"/>
      <use xlink:href="#DejaVuSans-72" transform="translate(812.59375 0)"/>
      <use xlink:href="#DejaVuSans-69" transform="translate(853.707031 0)"/>
      <use xlink:href="#DejaVuSans-6f" transform="translate(881.490234 0)"/>
      <use xlink:href="#DejaVuSans-72" transform="translate(942.671875 0)"/>
      <use xlink:href="#DejaVuSans-20" transform="translate(983.785156 0)"/>
      <use xlink:href="#DejaVuSans-70" transform="translate(1015.572266 0)"/>
      <use xlink:href="#DejaVuSans-72" transform="translate(1079.048828 0)"/>
      <use xlink:href="#DejaVuSans-6f" transform="translate(1117.912109 0)"/>
      <use xlink:href="#DejaVuSans-62" transform="translate(1179.09375 0)"/>
      <use xlink:href="#DejaVuSans-61" transform="translate(1242.570312 0)"/>
      <use xlink:href="#DejaVuSans-62" transform="translate(1303.849609 0)"/>
      <use xlink:href="#DejaVuSans-69" transform="translate(1367.326172 0)"/>
      <use xlink:href="#DejaVuSans-6c" transform="translate(1395.109375 0)"/>
      <use xlink:href="#DejaVuSans-69" transform="translate(1422.892578 0)"/>
      <use xlink:href="#DejaVuSans-74" transform="translate(1450.675781 0)"/>
      <use xlink:href="#DejaVuSans-79" transform="translate(1489.884766 0)"/>
     </g>
    </g>
   </g>
   <g id="matplotlib.axis_4"/>
   <g id="line2d_4">
    <path d="M 94.027454 324 
L 94.027454 50.4 
" clip-path="url(#pe4bc9889c1)" style="fill: none; stroke-dasharray: 2.96,1.28; stroke-dashoffset: 0; stroke: #ff0000; stroke-opacity: 0.7; stroke-width: 0.8"/>
   </g>
   <g id="patch_112">
    <path d="M 20.857269 324 
L 20.857269 50.4 
" style="fill: none; stroke: #000000; stroke-width: 0.8; stroke-linejoin: miter; stroke-linecap: square"/>
   </g>
   <g id="patch_113">
    <path d="M 20.857269 324 
L 112.32 324 
" style="fill: none; stroke: #000000; stroke-width: 0.8; stroke-linejoin: miter; stroke-linecap: square"/>
   </g>
  </g>
  <g id="text_23">
   <!-- Coloc-ABF — full posterior across PP.H0–H4 -->
   <g transform="translate(-56.998125 16.318125) scale(0.12 -0.12)">
    <defs>
     <path id="DejaVuSans-2014" d="M 313 1978 
L 6088 1978 
L 6088 1528 
L 313 1528 
L 313 1978 
z
" transform="scale(0.015625)"/>
     <path id="DejaVuSans-66" d="M 2375 4863 
L 2375 4384 
L 1825 4384 
Q 1516 4384 1395 4259 
Q 1275 4134 1275 3809 
L 1275 3500 
L 2222 3500 
L 2222 3053 
L 1275 3053 
L 1275 0 
L 697 0 
L 697 3053 
L 147 3053 
L 147 3500 
L 697 3500 
L 697 3744 
Q 697 4328 969 4595 
Q 1241 4863 1831 4863 
L 2375 4863 
z
" transform="scale(0.015625)"/>
     <path id="DejaVuSans-75" d="M 544 1381 
L 544 3500 
L 1119 3500 
L 1119 1403 
Q 1119 906 1312 657 
Q 1506 409 1894 409 
Q 2359 409 2629 706 
Q 2900 1003 2900 1516 
L 2900 3500 
L 3475 3500 
L 3475 0 
L 2900 0 
L 2900 538 
Q 2691 219 2414 64 
Q 2138 -91 1772 -91 
Q 1169 -91 856 284 
Q 544 659 544 1381 
z
M 1991 3584 
L 1991 3584 
z
" transform="scale(0.015625)"/>
     <path id="DejaVuSans-48" d="M 628 4666 
L 1259 4666 
L 1259 2753 
L 3553 2753 
L 3553 4666 
L 4184 4666 
L 4184 0 
L 3553 0 
L 3553 2222 
L 1259 2222 
L 1259 0 
L 628 0 
L 628 4666 
z
" transform="scale(0.015625)"/>
     <path id="DejaVuSans-2013" d="M 313 1978 
L 2888 1978 
L 2888 1528 
L 313 1528 
L 313 1978 
z
" transform="scale(0.015625)"/>
     <path id="DejaVuSans-34" d="M 2419 4116 
L 825 1625 
L 2419 1625 
L 2419 4116 
z
M 2253 4666 
L 3047 4666 
L 3047 1625 
L 3713 1625 
L 3713 1100 
L 3047 1100 
L 3047 0 
L 2419 0 
L 2419 1100 
L 313 1100 
L 313 1709 
L 2253 4666 
z
" transform="scale(0.015625)"/>
    </defs>
    <use xlink:href="#DejaVuSans-43"/>
    <use xlink:href="#DejaVuSans-6f" transform="translate(69.824219 0)"/>
    <use xlink:href="#DejaVuSans-6c" transform="translate(131.005859 0)"/>
    <use xlink:href="#DejaVuSans-6f" transform="translate(158.789062 0)"/>
    <use xlink:href="#DejaVuSans-63" transform="translate(219.970703 0)"/>
    <use xlink:href="#DejaVuSans-2d" transform="translate(274.951172 0)"/>
    <use xlink:href="#DejaVuSans-41" transform="translate(308.785156 0)"/>
    <use xlink:href="#DejaVuSans-42" transform="translate(377.193359 0)"/>
    <use xlink:href="#DejaVuSans-46" transform="translate(445.796875 0)"/>
    <use xlink:href="#DejaVuSans-20" transform="translate(503.316406 0)"/>
    <use xlink:href="#DejaVuSans-2014" transform="translate(535.103516 0)"/>
    <use xlink:href="#DejaVuSans-20" transform="translate(635.103516 0)"/>
    <use xlink:href="#DejaVuSans-66" transform="translate(666.890625 0)"/>
    <use xlink:href="#DejaVuSans-75" transform="translate(702.095703 0)"/>
    <use xlink:href="#DejaVuSans-6c" transform="translate(765.474609 0)"/>
    <use xlink:href="#DejaVuSans-6c" transform="translate(793.257812 0)"/>
    <use xlink:href="#DejaVuSans-20" transform="translate(821.041016 0)"/>
    <use xlink:href="#DejaVuSans-70" transform="translate(852.828125 0)"/>
    <use xlink:href="#DejaVuSans-6f" transform="translate(916.304688 0)"/>
    <use xlink:href="#DejaVuSans-73" transform="translate(977.486328 0)"/>
    <use xlink:href="#DejaVuSans-74" transform="translate(1029.585938 0)"/>
    <use xlink:href="#DejaVuSans-65" transform="translate(1068.794922 0)"/>
    <use xlink:href="#DejaVuSans-72" transform="translate(1130.318359 0)"/>
    <use xlink:href="#DejaVuSans-69" transform="translate(1171.431641 0)"/>
    <use xlink:href="#DejaVuSans-6f" transform="translate(1199.214844 0)"/>
    <use xlink:href="#DejaVuSans-72" transform="translate(1260.396484 0)"/>
    <use xlink:href="#DejaVuSans-20" transform="translate(1301.509766 0)"/>
    <use xlink:href="#DejaVuSans-61" transform="translate(1333.296875 0)"/>
    <use xlink:href="#DejaVuSans-63" transform="translate(1394.576172 0)"/>
    <use xlink:href="#DejaVuSans-72" transform="translate(1449.556641 0)"/>
    <use xlink:href="#DejaVuSans-6f" transform="translate(1488.419922 0)"/>
    <use xlink:href="#DejaVuSans-73" transform="translate(1549.601562 0)"/>
    <use xlink:href="#DejaVuSans-73" transform="translate(1601.701172 0)"/>
    <use xlink:href="#DejaVuSans-20" transform="translate(1653.800781 0)"/>
    <use xlink:href="#DejaVuSans-50" transform="translate(1685.587891 0)"/>
    <use xlink:href="#DejaVuSans-50" transform="translate(1745.890625 0)"/>
    <use xlink:href="#DejaVuSans-2e" transform="translate(1790.568359 0)"/>
    <use xlink:href="#DejaVuSans-48" transform="translate(1822.355469 0)"/>
    <use xlink:href="#DejaVuSans-30" transform="translate(1897.550781 0)"/>
    <use xlink:href="#DejaVuSans-2013" transform="translate(1961.173828 0)"/>
    <use xlink:href="#DejaVuSans-48" transform="translate(2011.173828 0)"/>
    <use xlink:href="#DejaVuSans-34" transform="translate(2086.369141 0)"/>
   </g>
  </g>
  <g id="legend_1">
   <g id="text_24">
    <!-- Colon subregion -->
    <g transform="translate(141.8 41.398438) scale(0.1 -0.1)">
     <defs>
      <path id="DejaVuSans-6e" d="M 3513 2113 
L 3513 0 
L 2938 0 
L 2938 2094 
Q 2938 2591 2744 2837 
Q 2550 3084 2163 3084 
Q 1697 3084 1428 2787 
Q 1159 2491 1159 1978 
L 1159 0 
L 581 0 
L 581 3500 
L 1159 3500 
L 1159 2956 
Q 1366 3272 1645 3428 
Q 1925 3584 2291 3584 
Q 2894 3584 3203 3211 
Q 3513 2838 3513 2113 
z
" transform="scale(0.015625)"/>
      <path id="DejaVuSans-67" d="M 2906 1791 
Q 2906 2416 2648 2759 
Q 2391 3103 1925 3103 
Q 1463 3103 1205 2759 
Q 947 2416 947 1791 
Q 947 1169 1205 825 
Q 1463 481 1925 481 
Q 2391 481 2648 825 
Q 2906 1169 2906 1791 
z
M 3481 434 
Q 3481 -459 3084 -895 
Q 2688 -1331 1869 -1331 
Q 1566 -1331 1297 -1286 
Q 1028 -1241 775 -1147 
L 775 -588 
Q 1028 -725 1275 -790 
Q 1522 -856 1778 -856 
Q 2344 -856 2625 -561 
Q 2906 -266 2906 331 
L 2906 616 
Q 2728 306 2450 153 
Q 2172 0 1784 0 
Q 1141 0 747 490 
Q 353 981 353 1791 
Q 353 2603 747 3093 
Q 1141 3584 1784 3584 
Q 2172 3584 2450 3431 
Q 2728 3278 2906 2969 
L 2906 3500 
L 3481 3500 
L 3481 434 
z
" transform="scale(0.015625)"/>
     </defs>
     <use xlink:href="#DejaVuSans-43"/>
     <use xlink:href="#DejaVuSans-6f" transform="translate(69.824219 0)"/>
     <use xlink:href="#DejaVuSans-6c" transform="translate(131.005859 0)"/>
     <use xlink:href="#DejaVuSans-6f" transform="translate(158.789062 0)"/>
     <use xlink:href="#DejaVuSans-6e" transform="translate(219.970703 0)"/>
     <use xlink:href="#DejaVuSans-20" transform="translate(283.349609 0)"/>
     <use xlink:href="#DejaVuSans-73" transform="translate(315.136719 0)"/>
     <use xlink:href="#DejaVuSans-75" transform="translate(367.236328 0)"/>
     <use xlink:href="#DejaVuSans-62" transform="translate(430.615234 0)"/>
     <use xlink:href="#DejaVuSans-72" transform="translate(494.091797 0)"/>
     <use xlink:href="#DejaVuSans-65" transform="translate(532.955078 0)"/>
     <use xlink:href="#DejaVuSans-67" transform="translate(594.478516 0)"/>
     <use xlink:href="#DejaVuSans-69" transform="translate(657.955078 0)"/>
     <use xlink:href="#DejaVuSans-6f" transform="translate(685.738281 0)"/>
     <use xlink:href="#DejaVuSans-6e" transform="translate(746.919922 0)"/>
    </g>
   </g>
   <g id="patch_114">
    <path d="M 150.833594 57.428125 
L 155.833594 57.428125 
L 155.833594 48.478125 
L 150.833594 48.478125 
z
" style="fill: #7a3b9c; stroke: #ffffff; stroke-linejoin: miter"/>
   </g>
   <g id="text_25">
    <!-- Sigmoid -->
    <g transform="translate(159.833594 56.378125) scale(0.1 -0.1)">
     <defs>
      <path id="DejaVuSans-6d" d="M 3328 2828 
Q 3544 3216 3844 3400 
Q 4144 3584 4550 3584 
Q 5097 3584 5394 3201 
Q 5691 2819 5691 2113 
L 5691 0 
L 5113 0 
L 5113 2094 
Q 5113 2597 4934 2840 
Q 4756 3084 4391 3084 
Q 3944 3084 3684 2787 
Q 3425 2491 3425 1978 
L 3425 0 
L 2847 0 
L 2847 2094 
Q 2847 2600 2669 2842 
Q 2491 3084 2119 3084 
Q 1678 3084 1418 2786 
Q 1159 2488 1159 1978 
L 1159 0 
L 581 0 
L 581 3500 
L 1159 3500 
L 1159 2956 
Q 1356 3278 1631 3431 
Q 1906 3584 2284 3584 
Q 2666 3584 2933 3390 
Q 3200 3197 3328 2828 
z
" transform="scale(0.015625)"/>
      <path id="DejaVuSans-64" d="M 2906 2969 
L 2906 4863 
L 3481 4863 
L 3481 0 
L 2906 0 
L 2906 525 
Q 2725 213 2448 61 
Q 2172 -91 1784 -91 
Q 1150 -91 751 415 
Q 353 922 353 1747 
Q 353 2572 751 3078 
Q 1150 3584 1784 3584 
Q 2172 3584 2448 3432 
Q 2725 3281 2906 2969 
z
M 947 1747 
Q 947 1113 1208 752 
Q 1469 391 1925 391 
Q 2381 391 2643 752 
Q 2906 1113 2906 1747 
Q 2906 2381 2643 2742 
Q 2381 3103 1925 3103 
Q 1469 3103 1208 2742 
Q 947 2381 947 1747 
z
" transform="scale(0.015625)"/>
     </defs>
     <use xlink:href="#DejaVuSans-53"/>
     <use xlink:href="#DejaVuSans-69" transform="translate(63.476562 0)"/>
     <use xlink:href="#DejaVuSans-67" transform="translate(91.259766 0)"/>
     <use xlink:href="#DejaVuSans-6d" transform="translate(154.736328 0)"/>
     <use xlink:href="#DejaVuSans-6f" transform="translate(252.148438 0)"/>
     <use xlink:href="#DejaVuSans-69" transform="translate(313.330078 0)"/>
     <use xlink:href="#DejaVuSans-64" transform="translate(341.113281 0)"/>
    </g>
   </g>
   <g id="patch_115">
    <path d="M 150.833594 72.407813 
L 155.833594 72.407813 
L 155.833594 63.457813 
L 150.833594 63.457813 
z
" style="fill: #ff9933; stroke: #ffffff; stroke-linejoin: miter"/>
   </g>
   <g id="text_26">
    <!-- Transverse -->
    <g transform="translate(159.833594 71.357813) scale(0.1 -0.1)">
     <defs>
      <path id="DejaVuSans-76" d="M 191 3500 
L 800 3500 
L 1894 563 
L 2988 3500 
L 3597 3500 
L 2284 0 
L 1503 0 
L 191 3500 
z
" transform="scale(0.015625)"/>
     </defs>
     <use xlink:href="#DejaVuSans-54"/>
     <use xlink:href="#DejaVuSans-72" transform="translate(46.333984 0)"/>
     <use xlink:href="#DejaVuSans-61" transform="translate(87.447266 0)"/>
     <use xlink:href="#DejaVuSans-6e" transform="translate(148.726562 0)"/>
     <use xlink:href="#DejaVuSans-73" transform="translate(212.105469 0)"/>
     <use xlink:href="#DejaVuSans-76" transform="translate(264.205078 0)"/>
     <use xlink:href="#DejaVuSans-65" transform="translate(323.384766 0)"/>
     <use xlink:href="#DejaVuSans-72" transform="translate(384.908203 0)"/>
     <use xlink:href="#DejaVuSans-73" transform="translate(426.021484 0)"/>
     <use xlink:href="#DejaVuSans-65" transform="translate(478.121094 0)"/>
    </g>
   </g>
  </g>
  <g id="legend_2">
   <g id="text_27">
    <!-- Colon subregion -->
    <g transform="translate(141.8 41.398438) scale(0.1 -0.1)">
     <use xlink:href="#DejaVuSans-43"/>
     <use xlink:href="#DejaVuSans-6f" transform="translate(69.824219 0)"/>
     <use xlink:href="#DejaVuSans-6c" transform="translate(131.005859 0)"/>
     <use xlink:href="#DejaVuSans-6f" transform="translate(158.789062 0)"/>
     <use xlink:href="#DejaVuSans-6e" transform="translate(219.970703 0)"/>
     <use xlink:href="#DejaVuSans-20" transform="translate(283.349609 0)"/>
     <use xlink:href="#DejaVuSans-73" transform="translate(315.136719 0)"/>
     <use xlink:href="#DejaVuSans-75" transform="translate(367.236328 0)"/>
     <use xlink:href="#DejaVuSans-62" transform="translate(430.615234 0)"/>
     <use xlink:href="#DejaVuSans-72" transform="translate(494.091797 0)"/>
     <use xlink:href="#DejaVuSans-65" transform="translate(532.955078 0)"/>
     <use xlink:href="#DejaVuSans-67" transform="translate(594.478516 0)"/>
     <use xlink:href="#DejaVuSans-69" transform="translate(657.955078 0)"/>
     <use xlink:href="#DejaVuSans-6f" transform="translate(685.738281 0)"/>
     <use xlink:href="#DejaVuSans-6e" transform="translate(746.919922 0)"/>
    </g>
   </g>
   <g id="patch_116">
    <path d="M 150.833594 57.428125 
L 155.833594 57.428125 
L 155.833594 48.478125 
L 150.833594 48.478125 
z
" style="fill: #7a3b9c; stroke: #ffffff; stroke-linejoin: miter"/>
   </g>
   <g id="text_28">
    <!-- Sigmoid -->
    <g transform="translate(159.833594 56.378125) scale(0.1 -0.1)">
     <use xlink:href="#DejaVuSans-53"/>
     <use xlink:href="#DejaVuSans-69" transform="translate(63.476562 0)"/>
     <use xlink:href="#DejaVuSans-67" transform="translate(91.259766 0)"/>
     <use xlink:href="#DejaVuSans-6d" transform="translate(154.736328 0)"/>
     <use xlink:href="#DejaVuSans-6f" transform="translate(252.148438 0)"/>
     <use xlink:href="#DejaVuSans-69" transform="translate(313.330078 0)"/>
     <use xlink:href="#DejaVuSans-64" transform="translate(341.113281 0)"/>
    </g>
   </g>
   <g id="patch_117">
    <path d="M 150.833594 72.407813 
L 155.833594 72.407813 
L 155.833594 63.457813 
L 150.833594 63.457813 
z
" style="fill: #ff9933; stroke: #ffffff; stroke-linejoin: miter"/>
   </g>
   <g id="text_29">
    <!-- Transverse -->
    <g transform="translate(159.833594 71.357813) scale(0.1 -0.1)">
     <use xlink:href="#DejaVuSans-54"/>
     <use xlink:href="#DejaVuSans-72" transform="translate(46.333984 0)"/>
     <use xlink:href="#DejaVuSans-61" transform="translate(87.447266 0)"/>
     <use xlink:href="#DejaVuSans-6e" transform="translate(148.726562 0)"/>
     <use xlink:href="#DejaVuSans-73" transform="translate(212.105469 0)"/>
     <use xlink:href="#DejaVuSans-76" transform="translate(264.205078 0)"/>
     <use xlink:href="#DejaVuSans-65" transform="translate(323.384766 0)"/>
     <use xlink:href="#DejaVuSans-72" transform="translate(384.908203 0)"/>
     <use xlink:href="#DejaVuSans-73" transform="translate(426.021484 0)"/>
     <use xlink:href="#DejaVuSans-65" transform="translate(478.121094 0)"/>
    </g>
   </g>
  </g>
  <g id="legend_3">
   <g id="text_30">
    <!-- Coloc-ABF hypothesis -->
    <g transform="translate(141.8 120.598438) scale(0.1 -0.1)">
     <defs>
      <path id="DejaVuSans-68" d="M 3513 2113 
L 3513 0 
L 2938 0 
L 2938 2094 
Q 2938 2591 2744 2837 
Q 2550 3084 2163 3084 
Q 1697 3084 1428 2787 
Q 1159 2491 1159 1978 
L 1159 0 
L 581 0 
L 581 4863 
L 1159 4863 
L 1159 2956 
Q 1366 3272 1645 3428 
Q 1925 3584 2291 3584 
Q 2894 3584 3203 3211 
Q 3513 2838 3513 2113 
z
" transform="scale(0.015625)"/>
     </defs>
     <use xlink:href="#DejaVuSans-43"/>
     <use xlink:href="#DejaVuSans-6f" transform="translate(69.824219 0)"/>
     <use xlink:href="#DejaVuSans-6c" transform="translate(131.005859 0)"/>
     <use xlink:href="#DejaVuSans-6f" transform="translate(158.789062 0)"/>
     <use xlink:href="#DejaVuSans-63" transform="translate(219.970703 0)"/>
     <use xlink:href="#DejaVuSans-2d" transform="translate(274.951172 0)"/>
     <use xlink:href="#DejaVuSans-41" transform="translate(308.785156 0)"/>
     <use xlink:href="#DejaVuSans-42" transform="translate(377.193359 0)"/>
     <use xlink:href="#DejaVuSans-46" transform="translate(445.796875 0)"/>
     <use xlink:href="#DejaVuSans-20" transform="translate(503.316406 0)"/>
     <use xlink:href="#DejaVuSans-68" transform="translate(535.103516 0)"/>
     <use xlink:href="#DejaVuSans-79" transform="translate(598.482422 0)"/>
     <use xlink:href="#DejaVuSans-70" transform="translate(657.662109 0)"/>
     <use xlink:href="#DejaVuSans-6f" transform="translate(721.138672 0)"/>
     <use xlink:href="#DejaVuSans-74" transform="translate(782.320312 0)"/>
     <use xlink:href="#DejaVuSans-68" transform="translate(821.529297 0)"/>
     <use xlink:href="#DejaVuSans-65" transform="translate(884.908203 0)"/>
     <use xlink:href="#DejaVuSans-73" transform="translate(946.431641 0)"/>
     <use xlink:href="#DejaVuSans-69" transform="translate(998.53125 0)"/>
     <use xlink:href="#DejaVuSans-73" transform="translate(1026.314453 0)"/>
    </g>
   </g>
   <g id="patch_118">
    <path d="M 148.690625 142.965313 
L 153.690625 142.965313 
L 153.690625 134.015313 
L 148.690625 134.015313 
z
" style="fill: #cccccc; stroke: #ffffff; stroke-linejoin: miter"/>
   </g>
   <g id="text_31">
    <!-- H0 -->
    <g transform="translate(157.690625 135.276563) scale(0.1 -0.1)">
     <use xlink:href="#DejaVuSans-48"/>
     <use xlink:href="#DejaVuSans-30" transform="translate(75.195312 0)"/>
    </g>
    <!-- (no signal) -->
    <g transform="translate(157.690625 146.474375) scale(0.1 -0.1)">
     <defs>
      <path id="DejaVuSans-28" d="M 1984 4856 
Q 1566 4138 1362 3434 
Q 1159 2731 1159 2009 
Q 1159 1288 1364 580 
Q 1569 -128 1984 -844 
L 1484 -844 
Q 1016 -109 783 600 
Q 550 1309 550 2009 
Q 550 2706 781 3412 
Q 1013 4119 1484 4856 
L 1984 4856 
z
" transform="scale(0.015625)"/>
      <path id="DejaVuSans-29" d="M 513 4856 
L 1013 4856 
Q 1481 4119 1714 3412 
Q 1947 2706 1947 2009 
Q 1947 1309 1714 600 
Q 1481 -109 1013 -844 
L 513 -844 
Q 928 -128 1133 580 
Q 1338 1288 1338 2009 
Q 1338 2731 1133 3434 
Q 928 4138 513 4856 
z
" transform="scale(0.015625)"/>
     </defs>
     <use xlink:href="#DejaVuSans-28"/>
     <use xlink:href="#DejaVuSans-6e" transform="translate(39.013672 0)"/>
     <use xlink:href="#DejaVuSans-6f" transform="translate(102.392578 0)"/>
     <use xlink:href="#DejaVuSans-20" transform="translate(163.574219 0)"/>
     <use xlink:href="#DejaVuSans-73" transform="translate(195.361328 0)"/>
     <use xlink:href="#DejaVuSans-69" transform="translate(247.460938 0)"/>
     <use xlink:href="#DejaVuSans-67" transform="translate(275.244141 0)"/>
     <use xlink:href="#DejaVuSans-6e" transform="translate(338.720703 0)"/>
     <use xlink:href="#DejaVuSans-61" transform="translate(402.099609 0)"/>
     <use xlink:href="#DejaVuSans-6c" transform="translate(463.378906 0)"/>
     <use xlink:href="#DejaVuSans-29" transform="translate(491.162109 0)"/>
    </g>
   </g>
   <g id="patch_119">
    <path d="M 148.690625 168.84125 
L 153.690625 168.84125 
L 153.690625 159.89125 
L 148.690625 159.89125 
z
" style="fill: #9ecae1; stroke: #ffffff; stroke-linejoin: miter"/>
   </g>
   <g id="text_32">
    <!-- H1 -->
    <g transform="translate(157.690625 161.1525) scale(0.1 -0.1)">
     <use xlink:href="#DejaVuSans-48"/>
     <use xlink:href="#DejaVuSans-31" transform="translate(75.195312 0)"/>
    </g>
    <!-- (GWAS only) -->
    <g transform="translate(157.690625 172.350313) scale(0.1 -0.1)">
     <defs>
      <path id="DejaVuSans-47" d="M 3809 666 
L 3809 1919 
L 2778 1919 
L 2778 2438 
L 4434 2438 
L 4434 434 
Q 4069 175 3628 42 
Q 3188 -91 2688 -91 
Q 1594 -91 976 548 
Q 359 1188 359 2328 
Q 359 3472 976 4111 
Q 1594 4750 2688 4750 
Q 3144 4750 3555 4637 
Q 3966 4525 4313 4306 
L 4313 3634 
Q 3963 3931 3569 4081 
Q 3175 4231 2741 4231 
Q 1884 4231 1454 3753 
Q 1025 3275 1025 2328 
Q 1025 1384 1454 906 
Q 1884 428 2741 428 
Q 3075 428 3337 486 
Q 3600 544 3809 666 
z
" transform="scale(0.015625)"/>
      <path id="DejaVuSans-57" d="M 213 4666 
L 850 4666 
L 1831 722 
L 2809 4666 
L 3519 4666 
L 4500 722 
L 5478 4666 
L 6119 4666 
L 4947 0 
L 4153 0 
L 3169 4050 
L 2175 0 
L 1381 0 
L 213 4666 
z
" transform="scale(0.015625)"/>
     </defs>
     <use xlink:href="#DejaVuSans-28"/>
     <use xlink:href="#DejaVuSans-47" transform="translate(39.013672 0)"/>
     <use xlink:href="#DejaVuSans-57" transform="translate(116.503906 0)"/>
     <use xlink:href="#DejaVuSans-41" transform="translate(209.880859 0)"/>
     <use xlink:href="#DejaVuSans-53" transform="translate(278.289062 0)"/>
     <use xlink:href="#DejaVuSans-20" transform="translate(341.765625 0)"/>
     <use xlink:href="#DejaVuSans-6f" transform="translate(373.552734 0)"/>
     <use xlink:href="#DejaVuSans-6e" transform="translate(434.734375 0)"/>
     <use xlink:href="#DejaVuSans-6c" transform="translate(498.113281 0)"/>
     <use xlink:href="#DejaVuSans-79" transform="translate(525.896484 0)"/>
     <use xlink:href="#DejaVuSans-29" transform="translate(585.076172 0)"/>
    </g>
   </g>
   <g id="patch_120">
    <path d="M 148.690625 194.717188 
L 153.690625 194.717188 
L 153.690625 185.767188 
L 148.690625 185.767188 
z
" style="fill: #c6dbef; stroke: #ffffff; stroke-linejoin: miter"/>
   </g>
   <g id="text_33">
    <!-- H2 -->
    <g transform="translate(157.690625 187.028438) scale(0.1 -0.1)">
     <use xlink:href="#DejaVuSans-48"/>
     <use xlink:href="#DejaVuSans-32" transform="translate(75.195312 0)"/>
    </g>
    <!-- (eQTL only) -->
    <g transform="translate(157.690625 198.22625) scale(0.1 -0.1)">
     <defs>
      <path id="DejaVuSans-51" d="M 2522 4238 
Q 1834 4238 1429 3725 
Q 1025 3213 1025 2328 
Q 1025 1447 1429 934 
Q 1834 422 2522 422 
Q 3209 422 3611 934 
Q 4013 1447 4013 2328 
Q 4013 3213 3611 3725 
Q 3209 4238 2522 4238 
z
M 3406 84 
L 4238 -825 
L 3475 -825 
L 2784 -78 
Q 2681 -84 2626 -87 
Q 2572 -91 2522 -91 
Q 1538 -91 948 567 
Q 359 1225 359 2328 
Q 359 3434 948 4092 
Q 1538 4750 2522 4750 
Q 3503 4750 4090 4092 
Q 4678 3434 4678 2328 
Q 4678 1516 4351 937 
Q 4025 359 3406 84 
z
" transform="scale(0.015625)"/>
     </defs>
     <use xlink:href="#DejaVuSans-28"/>
     <use xlink:href="#DejaVuSans-65" transform="translate(39.013672 0)"/>
     <use xlink:href="#DejaVuSans-51" transform="translate(100.537109 0)"/>
     <use xlink:href="#DejaVuSans-54" transform="translate(179.248047 0)"/>
     <use xlink:href="#DejaVuSans-4c" transform="translate(240.332031 0)"/>
     <use xlink:href="#DejaVuSans-20" transform="translate(296.044922 0)"/>
     <use xlink:href="#DejaVuSans-6f" transform="translate(327.832031 0)"/>
     <use xlink:href="#DejaVuSans-6e" transform="translate(389.013672 0)"/>
     <use xlink:href="#DejaVuSans-6c" transform="translate(452.392578 0)"/>
     <use xlink:href="#DejaVuSans-79" transform="translate(480.175781 0)"/>
     <use xlink:href="#DejaVuSans-29" transform="translate(539.355469 0)"/>
    </g>
   </g>
   <g id="patch_121">
    <path d="M 148.690625 220.593125 
L 153.690625 220.593125 
L 153.690625 211.643125 
L 148.690625 211.643125 
z
" style="fill: #fdae6b; stroke: #ffffff; stroke-linejoin: miter"/>
   </g>
   <g id="text_34">
    <!-- H3 -->
    <g transform="translate(157.690625 212.904375) scale(0.1 -0.1)">
     <defs>
      <path id="DejaVuSans-33" d="M 2597 2516 
Q 3050 2419 3304 2112 
Q 3559 1806 3559 1356 
Q 3559 666 3084 287 
Q 2609 -91 1734 -91 
Q 1441 -91 1130 -33 
Q 819 25 488 141 
L 488 750 
Q 750 597 1062 519 
Q 1375 441 1716 441 
Q 2309 441 2620 675 
Q 2931 909 2931 1356 
Q 2931 1769 2642 2001 
Q 2353 2234 1838 2234 
L 1294 2234 
L 1294 2753 
L 1863 2753 
Q 2328 2753 2575 2939 
Q 2822 3125 2822 3475 
Q 2822 3834 2567 4026 
Q 2313 4219 1838 4219 
Q 1578 4219 1281 4162 
Q 984 4106 628 3988 
L 628 4550 
Q 988 4650 1302 4700 
Q 1616 4750 1894 4750 
Q 2613 4750 3031 4423 
Q 3450 4097 3450 3541 
Q 3450 3153 3228 2886 
Q 3006 2619 2597 2516 
z
" transform="scale(0.015625)"/>
     </defs>
     <use xlink:href="#DejaVuSans-48"/>
     <use xlink:href="#DejaVuSans-33" transform="translate(75.195312 0)"/>
    </g>
    <!-- (distinct causals) -->
    <g transform="translate(157.690625 224.102188) scale(0.1 -0.1)">
     <use xlink:href="#DejaVuSans-28"/>
     <use xlink:href="#DejaVuSans-64" transform="translate(39.013672 0)"/>
     <use xlink:href="#DejaVuSans-69" transform="translate(102.490234 0)"/>
     <use xlink:href="#DejaVuSans-73" transform="translate(130.273438 0)"/>
     <use xlink:href="#DejaVuSans-74" transform="translate(182.373047 0)"/>
     <use xlink:href="#DejaVuSans-69" transform="translate(221.582031 0)"/>
     <use xlink:href="#DejaVuSans-6e" transform="translate(249.365234 0)"/>
     <use xlink:href="#DejaVuSans-63" transform="translate(312.744141 0)"/>
     <use xlink:href="#DejaVuSans-74" transform="translate(367.724609 0)"/>
     <use xlink:href="#DejaVuSans-20" transform="translate(406.933594 0)"/>
     <use xlink:href="#DejaVuSans-63" transform="translate(438.720703 0)"/>
     <use xlink:href="#DejaVuSans-61" transform="translate(493.701172 0)"/>
     <use xlink:href="#DejaVuSans-75" transform="translate(554.980469 0)"/>
     <use xlink:href="#DejaVuSans-73" transform="translate(618.359375 0)"/>
     <use xlink:href="#DejaVuSans-61" transform="translate(670.458984 0)"/>
     <use xlink:href="#DejaVuSans-6c" transform="translate(731.738281 0)"/>
     <use xlink:href="#DejaVuSans-73" transform="translate(759.521484 0)"/>
     <use xlink:href="#DejaVuSans-29" transform="translate(811.621094 0)"/>
    </g>
   </g>
   <g id="patch_122">
    <path d="M 148.690625 246.469063 
L 153.690625 246.469063 
L 153.690625 237.519063 
L 148.690625 237.519063 
z
" style="fill: #2ca02c; stroke: #ffffff; stroke-linejoin: miter"/>
   </g>
   <g id="text_35">
    <!-- H4 -->
    <g transform="translate(157.690625 238.780313) scale(0.1 -0.1)">
     <use xlink:href="#DejaVuSans-48"/>
     <use xlink:href="#DejaVuSans-34" transform="translate(75.195312 0)"/>
    </g>
    <!-- (shared causal) -->
    <g transform="translate(157.690625 249.978125) scale(0.1 -0.1)">
     <use xlink:href="#DejaVuSans-28"/>
     <use xlink:href="#DejaVuSans-73" transform="translate(39.013672 0)"/>
     <use xlink:href="#DejaVuSans-68" transform="translate(91.113281 0)"/>
     <use xlink:href="#DejaVuSans-61" transform="translate(154.492188 0)"/>
     <use xlink:href="#DejaVuSans-72" transform="translate(215.771484 0)"/>
     <use xlink:href="#DejaVuSans-65" transform="translate(254.634766 0)"/>
     <use xlink:href="#DejaVuSans-64" transform="translate(316.158203 0)"/>
     <use xlink:href="#DejaVuSans-20" transform="translate(379.634766 0)"/>
     <use xlink:href="#DejaVuSans-63" transform="translate(411.421875 0)"/>
     <use xlink:href="#DejaVuSans-61" transform="translate(466.402344 0)"/>
     <use xlink:href="#DejaVuSans-75" transform="translate(527.681641 0)"/>
     <use xlink:href="#DejaVuSans-73" transform="translate(591.060547 0)"/>
     <use xlink:href="#DejaVuSans-61" transform="translate(643.160156 0)"/>
     <use xlink:href="#DejaVuSans-6c" transform="translate(704.439453 0)"/>
     <use xlink:href="#DejaVuSans-29" transform="translate(732.222656 0)"/>
    </g>
   </g>
  </g>
 </g>
 <defs>
  <clipPath id="p033ddc5963">
   <rect x="14.4" y="50.4" width="5.487764" height="273.6"/>
  </clipPath>
  <clipPath id="pe4bc9889c1">
   <rect x="20.857269" y="50.4" width="91.462731" height="273.6"/>
  </clipPath>
 </defs>
</svg>
